<svg width="16" height="16" viewBox="0 0 16 16" fill="none" xmlns="http://www.w3.org/2000/svg">
<path fill-rule="evenodd" clip-rule="evenodd" d="M11.3486 1.3335C13.6202 1.3335 15.3332 3.19127 15.3332 5.65486V10.3509C15.3332 11.6118 14.8884 12.7509 14.08 13.5591C13.3549 14.2832 12.4142 14.6668 11.3595 14.6668H4.6381C3.58551 14.6668 2.64548 14.2839 1.91965 13.5591C1.11128 12.7509 0.666504 11.6118 0.666504 10.3509V5.65486C0.666504 3.19127 2.37943 1.3335 4.65106 1.3335H11.3486ZM11.3486 2.35914H4.65106C2.9354 2.35914 1.68976 3.74512 1.68976 5.65486V10.3509C1.68976 11.3376 2.02812 12.219 2.64207 12.8323C3.17143 13.3622 3.86247 13.6412 4.64015 13.6412H11.3486C11.35 13.6398 11.3554 13.6412 11.3595 13.6412C12.1379 13.6412 12.8282 13.3622 13.3576 12.8323C13.9722 12.219 14.3099 11.3376 14.3099 10.3509V5.65486C14.3099 3.74512 13.0643 2.35914 11.3486 2.35914ZM12.4237 5.52413C12.6018 5.74362 12.5683 6.06635 12.3494 6.2455L9.31779 8.71524C8.93441 9.0202 8.47599 9.17268 8.01826 9.17268C7.56188 9.17268 7.10688 9.02156 6.72622 8.71934L3.66669 6.24686C3.44635 6.06909 3.41224 5.74567 3.58892 5.5255C3.76697 5.30601 4.08895 5.27114 4.30861 5.44823L7.36542 7.91798C7.74948 8.22293 8.29044 8.22293 8.67723 7.91524L11.7033 5.4496C11.923 5.26977 12.245 5.30396 12.4237 5.52413Z" fill="#667085"/>
</svg>
