<svg width="48" height="41" viewBox="0 0 48 41" fill="none" xmlns="http://www.w3.org/2000/svg">
<rect x="0.5" y="0.554688" width="47" height="39.094" rx="7.5" fill="#F9FBFA"/>
<rect x="0.5" y="0.554688" width="47" height="39.094" rx="7.5" stroke="#F9FBFA"/>
<path fill-rule="evenodd" clip-rule="evenodd" d="M22 22.6017C22 22.3255 22.2239 22.1017 22.5 22.1017H25.5C25.7761 22.1017 26 22.3255 26 22.6017C26 22.8778 25.7761 23.1017 25.5 23.1017H22.5C22.2239 23.1017 22 22.8778 22 22.6017Z" fill="#414141"/>
<path fill-rule="evenodd" clip-rule="evenodd" d="M20 19.6017C20 19.3255 20.2239 19.1017 20.5 19.1017H27.5C27.7761 19.1017 28 19.3255 28 19.6017C28 19.8778 27.7761 20.1017 27.5 20.1017H20.5C20.2239 20.1017 20 19.8778 20 19.6017Z" fill="#414141"/>
<path fill-rule="evenodd" clip-rule="evenodd" d="M18 16.6017C18 16.3255 18.2239 16.1017 18.5 16.1017H29.5C29.7761 16.1017 30 16.3255 30 16.6017C30 16.8778 29.7761 17.1017 29.5 17.1017H18.5C18.2239 17.1017 18 16.8778 18 16.6017Z" fill="#414141"/>
</svg>
