<svg width="99" height="16" viewBox="0 0 99 16" fill="none" xmlns="http://www.w3.org/2000/svg">
<path fill-rule="evenodd" clip-rule="evenodd" d="M90.207 11.112V1.33398L91.8737 6.33398H96.8737L92.8737 9.33398L94.8737 14.6673L90.207 11.112Z" fill="#8D918F"/>
<path fill-rule="evenodd" clip-rule="evenodd" d="M90.2057 11.112L85.5391 14.6673L87.5391 9.33398L83.5391 6.33398H88.5391L90.2057 1.33398V11.112Z" fill="#FFC95E"/>
<path d="M16.5517 6.12414H10.2345L8.27586 0L6.31724 6.12414H0L5.10345 9.90345L3.17241 16L8.27586 12.2207L13.3793 16L11.4207 9.87586L16.5517 6.12414Z" fill="#FFCE31"/>
<path d="M78.208 6.12414H71.8907L69.9321 0L67.9735 6.12414H61.6562L66.7597 9.90345L64.8287 16L69.9321 12.2207L75.0356 16L73.0769 9.87586L78.208 6.12414Z" fill="#FFCE31"/>
<path d="M37.1025 6.12414H30.7853L28.8266 0L26.868 6.12414H20.5508L25.6542 9.90345L23.7232 16L28.8266 12.2207L33.9301 16L31.9715 9.87586L37.1025 6.12414Z" fill="#FFCE31"/>
<path d="M57.6552 6.12414H51.338L49.3794 0L47.4208 6.12414H41.1035L46.207 9.90345L44.2759 16L49.3794 12.2207L54.4828 16L52.5242 9.87586L57.6552 6.12414Z" fill="#FFCE31"/>
</svg>
