<svg width="21" height="20" viewBox="0 0 21 20" fill="none" xmlns="http://www.w3.org/2000/svg">
<path d="M10.5391 10C11.5336 10 12.4875 9.60491 13.1907 8.90165C13.894 8.19839 14.2891 7.24456 14.2891 6.25C14.2891 5.25544 13.894 4.30161 13.1907 3.59835C12.4875 2.89509 11.5336 2.5 10.5391 2.5C9.5445 2.5 8.59067 2.89509 7.88741 3.59835C7.18415 4.30161 6.78906 5.25544 6.78906 6.25C6.78906 7.24456 7.18415 8.19839 7.88741 8.90165C8.59067 9.60491 9.5445 10 10.5391 10ZM13.0391 6.25C13.0391 6.91304 12.7757 7.54893 12.3068 8.01777C11.838 8.48661 11.2021 8.75 10.5391 8.75C9.87602 8.75 9.24014 8.48661 8.7713 8.01777C8.30245 7.54893 8.03906 6.91304 8.03906 6.25C8.03906 5.58696 8.30245 4.95107 8.7713 4.48223C9.24014 4.01339 9.87602 3.75 10.5391 3.75C11.2021 3.75 11.838 4.01339 12.3068 4.48223C12.7757 4.95107 13.0391 5.58696 13.0391 6.25ZM18.0391 16.25C18.0391 17.5 16.7891 17.5 16.7891 17.5H4.28906C4.28906 17.5 3.03906 17.5 3.03906 16.25C3.03906 15 4.28906 11.25 10.5391 11.25C16.7891 11.25 18.0391 15 18.0391 16.25ZM16.7891 16.245C16.7878 15.9375 16.5966 15.0125 15.7491 14.165C14.9341 13.35 13.4003 12.5 10.5391 12.5C7.67656 12.5 6.14406 13.35 5.32906 14.165C4.48156 15.0125 4.29156 15.9375 4.28906 16.245H16.7891Z" fill="#09090F"/>
</svg>
