<svg width="649" height="627" viewBox="0 0 649 627" fill="none" xmlns="http://www.w3.org/2000/svg">
<rect width="649" height="644" fill="white"/>
<rect x="18" y="32.7695" width="609" height="283.531" rx="10" fill="#F3F2F2"/>
<rect x="18" y="302" width="609" height="283.531" rx="10" fill="#F3F2F2"/>
<path d="M57.334 62.1553H54.834V47.9365H57.334V62.1553ZM61.7676 49.9678H50.4395V47.9365H61.7676V49.9678ZM61.4355 56.7744C61.4355 55.7458 61.6309 54.8278 62.0215 54.0205C62.4121 53.2132 62.972 52.5752 63.7012 52.1064C64.4368 51.6312 65.319 51.3936 66.3477 51.3936C67.3893 51.3936 68.278 51.6312 69.0137 52.1064C69.7493 52.5752 70.3092 53.2132 70.6934 54.0205C71.084 54.8278 71.2793 55.7458 71.2793 56.7744V56.9795C71.2793 58.0016 71.084 58.9196 70.6934 59.7334C70.3092 60.5407 69.7493 61.1787 69.0137 61.6475C68.2845 62.1162 67.4023 62.3506 66.3672 62.3506C65.332 62.3506 64.4466 62.1162 63.7109 61.6475C62.9753 61.1787 62.4121 60.5407 62.0215 59.7334C61.6309 58.9196 61.4355 58.0016 61.4355 56.9795V56.7744ZM63.8574 56.9795C63.8574 57.6045 63.9453 58.1774 64.1211 58.6982C64.2969 59.2126 64.5671 59.626 64.9316 59.9385C65.3027 60.251 65.7812 60.4072 66.3672 60.4072C66.9466 60.4072 67.4186 60.251 67.7832 59.9385C68.1543 59.626 68.4245 59.2126 68.5938 58.6982C68.7695 58.1774 68.8574 57.6045 68.8574 56.9795V56.7744C68.8574 56.1559 68.7695 55.5863 68.5938 55.0654C68.4245 54.5446 68.1543 54.1279 67.7832 53.8154C67.4121 53.4964 66.9336 53.3369 66.3477 53.3369C65.7682 53.3369 65.293 53.4964 64.9219 53.8154C64.5573 54.1279 64.2871 54.5446 64.1113 55.0654C63.9421 55.5863 63.8574 56.1559 63.8574 56.7744V56.9795ZM79.668 47.1553H82.0898V62.1553H79.8926L79.668 59.9385V47.1553ZM72.8125 56.7842C72.8125 55.7165 72.9785 54.779 73.3105 53.9717C73.6491 53.1579 74.1276 52.5264 74.7461 52.0771C75.3646 51.6214 76.1068 51.3936 76.9727 51.3936C77.8255 51.3936 78.5384 51.6149 79.1113 52.0576C79.6842 52.5003 80.1335 53.1156 80.459 53.9033C80.791 54.6846 81.0124 55.5928 81.123 56.6279V57.1943C81.0124 58.1969 80.7943 59.0856 80.4688 59.8604C80.1432 60.6351 79.6908 61.2438 79.1113 61.6865C78.5384 62.1292 77.819 62.3506 76.9531 62.3506C76.1003 62.3506 75.3646 62.1195 74.7461 61.6572C74.1276 61.1885 73.6491 60.5505 73.3105 59.7432C72.9785 58.9359 72.8125 58.0179 72.8125 56.9893V56.7842ZM75.2344 56.9893C75.2344 57.6143 75.3125 58.1839 75.4688 58.6982C75.625 59.2061 75.8724 59.613 76.2109 59.9189C76.556 60.2184 77.0085 60.3682 77.5684 60.3682C78.0957 60.3682 78.5286 60.2542 78.8672 60.0264C79.2122 59.792 79.4792 59.4762 79.668 59.0791C79.8633 58.682 79.9967 58.236 80.0684 57.7412V56.0908C80.0228 55.7002 79.9414 55.3389 79.8242 55.0068C79.707 54.6748 79.5475 54.3883 79.3457 54.1475C79.1504 53.9066 78.9062 53.7178 78.6133 53.5811C78.3203 53.4443 77.9785 53.376 77.5879 53.376C77.028 53.376 76.5723 53.529 76.2207 53.835C75.8757 54.1344 75.625 54.5446 75.4688 55.0654C75.3125 55.5798 75.2344 56.1527 75.2344 56.7842V56.9893ZM90.4688 55.0166C90.4688 54.4697 90.3158 54.0335 90.0098 53.708C89.7103 53.3825 89.2546 53.2197 88.6426 53.2197C88.278 53.2197 87.959 53.2848 87.6855 53.415C87.4121 53.5387 87.2005 53.708 87.0508 53.9229C86.901 54.1377 86.8262 54.3818 86.8262 54.6553H84.4043C84.4043 54.0889 84.5833 53.5583 84.9414 53.0635C85.2995 52.5622 85.804 52.1585 86.4551 51.8525C87.1126 51.5465 87.8874 51.3936 88.7793 51.3936C89.5736 51.3936 90.2799 51.527 90.8984 51.7939C91.5169 52.0609 92.002 52.4645 92.3535 53.0049C92.7116 53.5452 92.8906 54.2223 92.8906 55.0361V59.6943C92.8906 60.1891 92.9264 60.6253 92.998 61.0029C93.0697 61.3805 93.1706 61.7093 93.3008 61.9893V62.1553H90.8203C90.7096 61.9014 90.6217 61.5726 90.5566 61.1689C90.498 60.7653 90.4688 60.3714 90.4688 59.9873V55.0166ZM90.8398 57.2139H89.1797C88.3203 57.2139 87.6725 57.3734 87.2363 57.6924C86.8066 58.0049 86.5918 58.4313 86.5918 58.9717C86.5918 59.3883 86.735 59.7367 87.0215 60.0166C87.3079 60.29 87.7116 60.4268 88.2324 60.4268C88.7077 60.4268 89.1211 60.3324 89.4727 60.1436C89.8307 59.9482 90.1107 59.7106 90.3125 59.4307C90.5143 59.1442 90.6185 58.8773 90.625 58.6299L91.3965 59.7139C91.3184 59.9808 91.1849 60.2673 90.9961 60.5732C90.8138 60.8727 90.5697 61.1592 90.2637 61.4326C89.9642 61.6995 89.6061 61.9209 89.1895 62.0967C88.7793 62.266 88.3008 62.3506 87.7539 62.3506C87.0638 62.3506 86.4486 62.2139 85.9082 61.9404C85.3678 61.667 84.9414 61.2926 84.6289 60.8174C84.3229 60.3356 84.1699 59.7952 84.1699 59.1963C84.1699 58.0765 84.5898 57.2171 85.4297 56.6182C86.2695 56.0192 87.4609 55.7197 89.0039 55.7197H90.8203L90.8398 57.2139ZM101.24 51.5889H103.828L99.5996 63.7568C99.502 64.0238 99.375 64.3102 99.2188 64.6162C99.0625 64.9222 98.8574 65.2119 98.6035 65.4854C98.3561 65.7588 98.0436 65.9834 97.666 66.1592C97.2949 66.335 96.8457 66.4229 96.3184 66.4229C96.1751 66.4229 96.0352 66.4131 95.8984 66.3936C95.7682 66.3805 95.6413 66.361 95.5176 66.335C95.3939 66.3089 95.2734 66.2796 95.1562 66.2471V64.3818C95.2214 64.3883 95.2995 64.3949 95.3906 64.4014C95.4818 64.4079 95.5566 64.4111 95.6152 64.4111C96.1947 64.4111 96.6341 64.307 96.9336 64.0986C97.2331 63.8903 97.4642 63.5355 97.627 63.0342L98.3984 60.9932L101.24 51.5889ZM99.3164 59.4111L99.7461 62.0283L98.0664 62.4092L94.248 51.5889H96.8652L99.3164 59.4111ZM107.402 61.5791C107.402 62.2562 107.233 62.9495 106.895 63.6592C106.556 64.3688 106.11 64.958 105.557 65.4268L104.258 64.6846C104.44 64.3916 104.606 64.0954 104.756 63.7959C104.906 63.4964 105.026 63.1742 105.117 62.8291C105.208 62.484 105.254 62.0999 105.254 61.6768V59.8604H107.402V61.5791ZM116.592 60.2217C117.484 60.2217 118.229 60.1077 118.828 59.8799C119.434 59.652 119.912 59.333 120.264 58.9229C120.615 58.5062 120.866 58.0212 121.016 57.4678C121.172 56.9079 121.25 56.2959 121.25 55.6318V53.1123C121.25 52.3636 121.146 51.7354 120.938 51.2275C120.729 50.7197 120.452 50.3389 120.107 50.085C119.762 49.8245 119.378 49.6943 118.955 49.6943C118.486 49.6943 118.086 49.8311 117.754 50.1045C117.422 50.3779 117.168 50.7393 116.992 51.1885C116.823 51.6377 116.738 52.1292 116.738 52.6631C116.738 53.1709 116.82 53.6494 116.982 54.0986C117.145 54.5479 117.393 54.9124 117.725 55.1924C118.057 55.4658 118.477 55.6025 118.984 55.6025C119.329 55.6025 119.652 55.5342 119.951 55.3975C120.251 55.2542 120.511 55.0687 120.732 54.8408C120.954 54.613 121.13 54.3558 121.26 54.0693C121.39 53.7764 121.465 53.4769 121.484 53.1709L122.402 53.4932C122.402 53.9749 122.298 54.4535 122.09 54.9287C121.888 55.404 121.608 55.8369 121.25 56.2275C120.892 56.6117 120.472 56.9176 119.99 57.1455C119.515 57.3734 119.001 57.4873 118.447 57.4873C117.536 57.4873 116.774 57.2692 116.162 56.833C115.557 56.3903 115.101 55.8076 114.795 55.085C114.489 54.3623 114.336 53.5745 114.336 52.7217C114.336 51.8037 114.518 50.9704 114.883 50.2217C115.254 49.4665 115.785 48.8643 116.475 48.415C117.165 47.9658 117.995 47.7412 118.965 47.7412C119.727 47.7412 120.4 47.8877 120.986 48.1807C121.579 48.4736 122.07 48.8838 122.461 49.4111C122.858 49.9385 123.158 50.5537 123.359 51.2568C123.568 51.9535 123.672 52.7054 123.672 53.5127V54.3721C123.672 55.2249 123.594 56.042 123.438 56.8232C123.288 57.6045 123.047 58.3239 122.715 58.9814C122.383 59.639 121.94 60.2119 121.387 60.7002C120.84 61.1885 120.173 61.5693 119.385 61.8428C118.597 62.1097 117.673 62.2432 116.611 62.2432H116.406V60.2217H116.592ZM137.051 47.9365H139.57V57.8682C139.57 58.8122 139.368 59.6195 138.965 60.29C138.561 60.9541 138.008 61.4652 137.305 61.8232C136.602 62.1748 135.804 62.3506 134.912 62.3506C134.007 62.3506 133.203 62.1976 132.5 61.8916C131.803 61.5791 131.253 61.1071 130.85 60.4756C130.452 59.8376 130.254 59.0335 130.254 58.0635H132.773C132.773 58.8773 132.969 59.46 133.359 59.8115C133.757 60.1566 134.274 60.3291 134.912 60.3291C135.335 60.3291 135.706 60.2347 136.025 60.0459C136.344 59.8506 136.595 59.5706 136.777 59.2061C136.96 58.8415 137.051 58.3955 137.051 57.8682V47.9365ZM148.047 55.0166C148.047 54.4697 147.894 54.0335 147.588 53.708C147.288 53.3825 146.833 53.2197 146.221 53.2197C145.856 53.2197 145.537 53.2848 145.264 53.415C144.99 53.5387 144.779 53.708 144.629 53.9229C144.479 54.1377 144.404 54.3818 144.404 54.6553H141.982C141.982 54.0889 142.161 53.5583 142.52 53.0635C142.878 52.5622 143.382 52.1585 144.033 51.8525C144.691 51.5465 145.465 51.3936 146.357 51.3936C147.152 51.3936 147.858 51.527 148.477 51.7939C149.095 52.0609 149.58 52.4645 149.932 53.0049C150.29 53.5452 150.469 54.2223 150.469 55.0361V59.6943C150.469 60.1891 150.505 60.6253 150.576 61.0029C150.648 61.3805 150.749 61.7093 150.879 61.9893V62.1553H148.398C148.288 61.9014 148.2 61.5726 148.135 61.1689C148.076 60.7653 148.047 60.3714 148.047 59.9873V55.0166ZM148.418 57.2139H146.758C145.898 57.2139 145.251 57.3734 144.814 57.6924C144.385 58.0049 144.17 58.4313 144.17 58.9717C144.17 59.3883 144.313 59.7367 144.6 60.0166C144.886 60.29 145.29 60.4268 145.811 60.4268C146.286 60.4268 146.699 60.3324 147.051 60.1436C147.409 59.9482 147.689 59.7106 147.891 59.4307C148.092 59.1442 148.197 58.8773 148.203 58.6299L148.975 59.7139C148.896 59.9808 148.763 60.2673 148.574 60.5732C148.392 60.8727 148.148 61.1592 147.842 61.4326C147.542 61.6995 147.184 61.9209 146.768 62.0967C146.357 62.266 145.879 62.3506 145.332 62.3506C144.642 62.3506 144.027 62.2139 143.486 61.9404C142.946 61.667 142.52 61.2926 142.207 60.8174C141.901 60.3356 141.748 59.7952 141.748 59.1963C141.748 58.0765 142.168 57.2171 143.008 56.6182C143.848 56.0192 145.039 55.7197 146.582 55.7197H148.398L148.418 57.2139ZM155.312 62.1553H152.891V51.5889H155.166L155.312 53.8447V62.1553ZM154.102 56.501C154.108 55.4788 154.287 54.5869 154.639 53.8252C154.99 53.057 155.482 52.4613 156.113 52.0381C156.745 51.6084 157.48 51.3936 158.32 51.3936C159.004 51.3936 159.596 51.5238 160.098 51.7842C160.599 52.0381 160.99 52.4548 161.27 53.0342C161.549 53.6071 161.689 54.3786 161.689 55.3486V62.1553H159.258V55.3291C159.258 54.8408 159.186 54.4535 159.043 54.167C158.906 53.8805 158.698 53.6787 158.418 53.5615C158.145 53.4378 157.809 53.376 157.412 53.376C157.008 53.376 156.65 53.4574 156.338 53.6201C156.032 53.7764 155.768 53.9977 155.547 54.2842C155.332 54.5706 155.166 54.9027 155.049 55.2803C154.938 55.6579 154.883 56.0615 154.883 56.4912L154.102 56.501ZM170.4 51.5889H172.822V62.1553H170.537L170.4 59.6553V51.5889ZM171.543 57.4287C171.543 58.3792 171.403 59.2256 171.123 59.9678C170.843 60.7035 170.407 61.2861 169.814 61.7158C169.222 62.139 168.454 62.3506 167.51 62.3506C166.468 62.3506 165.625 62.0446 164.98 61.4326C164.336 60.8206 164.014 59.8148 164.014 58.415V51.5889H166.436V58.4346C166.436 58.9229 166.51 59.3102 166.66 59.5967C166.816 59.8766 167.021 60.0752 167.275 60.1924C167.529 60.3096 167.809 60.3682 168.115 60.3682C168.773 60.3682 169.29 60.2412 169.668 59.9873C170.052 59.7269 170.326 59.3753 170.488 58.9326C170.651 58.4899 170.732 57.9951 170.732 57.4482L171.543 57.4287ZM181.133 55.0166C181.133 54.4697 180.98 54.0335 180.674 53.708C180.374 53.3825 179.919 53.2197 179.307 53.2197C178.942 53.2197 178.623 53.2848 178.35 53.415C178.076 53.5387 177.865 53.708 177.715 53.9229C177.565 54.1377 177.49 54.3818 177.49 54.6553H175.068C175.068 54.0889 175.247 53.5583 175.605 53.0635C175.964 52.5622 176.468 52.1585 177.119 51.8525C177.777 51.5465 178.551 51.3936 179.443 51.3936C180.238 51.3936 180.944 51.527 181.562 51.7939C182.181 52.0609 182.666 52.4645 183.018 53.0049C183.376 53.5452 183.555 54.2223 183.555 55.0361V59.6943C183.555 60.1891 183.59 60.6253 183.662 61.0029C183.734 61.3805 183.835 61.7093 183.965 61.9893V62.1553H181.484C181.374 61.9014 181.286 61.5726 181.221 61.1689C181.162 60.7653 181.133 60.3714 181.133 59.9873V55.0166ZM181.504 57.2139H179.844C178.984 57.2139 178.337 57.3734 177.9 57.6924C177.471 58.0049 177.256 58.4313 177.256 58.9717C177.256 59.3883 177.399 59.7367 177.686 60.0166C177.972 60.29 178.376 60.4268 178.896 60.4268C179.372 60.4268 179.785 60.3324 180.137 60.1436C180.495 59.9482 180.775 59.7106 180.977 59.4307C181.178 59.1442 181.283 58.8773 181.289 58.6299L182.061 59.7139C181.982 59.9808 181.849 60.2673 181.66 60.5732C181.478 60.8727 181.234 61.1592 180.928 61.4326C180.628 61.6995 180.27 61.9209 179.854 62.0967C179.443 62.266 178.965 62.3506 178.418 62.3506C177.728 62.3506 177.113 62.2139 176.572 61.9404C176.032 61.667 175.605 61.2926 175.293 60.8174C174.987 60.3356 174.834 59.7952 174.834 59.1963C174.834 58.0765 175.254 57.2171 176.094 56.6182C176.934 56.0192 178.125 55.7197 179.668 55.7197H181.484L181.504 57.2139ZM188.428 62.1553H186.006V51.5889H188.311L188.428 53.6592V62.1553ZM191.611 53.8154C191.462 53.7894 191.302 53.7699 191.133 53.7568C190.97 53.7438 190.807 53.7373 190.645 53.7373C190.111 53.7373 189.665 53.835 189.307 54.0303C188.955 54.2191 188.688 54.4925 188.506 54.8506C188.324 55.2021 188.216 55.6188 188.184 56.1006L187.627 56.1104C187.627 55.2184 187.744 54.4176 187.979 53.708C188.213 52.9984 188.564 52.4352 189.033 52.0186C189.502 51.6019 190.088 51.3936 190.791 51.3936C190.928 51.3936 191.081 51.4066 191.25 51.4326C191.419 51.4587 191.546 51.488 191.631 51.5205L191.611 53.8154ZM198.994 51.5889H201.582L197.354 63.7568C197.256 64.0238 197.129 64.3102 196.973 64.6162C196.816 64.9222 196.611 65.2119 196.357 65.4854C196.11 65.7588 195.798 65.9834 195.42 66.1592C195.049 66.335 194.6 66.4229 194.072 66.4229C193.929 66.4229 193.789 66.4131 193.652 66.3936C193.522 66.3805 193.395 66.361 193.271 66.335C193.148 66.3089 193.027 66.2796 192.91 66.2471V64.3818C192.975 64.3883 193.053 64.3949 193.145 64.4014C193.236 64.4079 193.311 64.4111 193.369 64.4111C193.949 64.4111 194.388 64.307 194.688 64.0986C194.987 63.8903 195.218 63.5355 195.381 63.0342L196.152 60.9932L198.994 51.5889ZM197.07 59.4111L197.5 62.0283L195.82 62.4092L192.002 51.5889H194.619L197.07 59.4111Z" fill="#ACAFAE"/>
<path d="M57.334 331.386H54.834V317.167H57.334V331.386ZM61.7676 319.198H50.4395V317.167H61.7676V319.198ZM61.4355 326.005C61.4355 324.976 61.6309 324.058 62.0215 323.251C62.4121 322.444 62.972 321.806 63.7012 321.337C64.4368 320.862 65.319 320.624 66.3477 320.624C67.3893 320.624 68.278 320.862 69.0137 321.337C69.7493 321.806 70.3092 322.444 70.6934 323.251C71.084 324.058 71.2793 324.976 71.2793 326.005V326.21C71.2793 327.232 71.084 328.15 70.6934 328.964C70.3092 329.771 69.7493 330.409 69.0137 330.878C68.2845 331.347 67.4023 331.581 66.3672 331.581C65.332 331.581 64.4466 331.347 63.7109 330.878C62.9753 330.409 62.4121 329.771 62.0215 328.964C61.6309 328.15 61.4355 327.232 61.4355 326.21V326.005ZM63.8574 326.21C63.8574 326.835 63.9453 327.408 64.1211 327.929C64.2969 328.443 64.5671 328.856 64.9316 329.169C65.3027 329.481 65.7812 329.638 66.3672 329.638C66.9466 329.638 67.4186 329.481 67.7832 329.169C68.1543 328.856 68.4245 328.443 68.5938 327.929C68.7695 327.408 68.8574 326.835 68.8574 326.21V326.005C68.8574 325.386 68.7695 324.817 68.5938 324.296C68.4245 323.775 68.1543 323.358 67.7832 323.046C67.4121 322.727 66.9336 322.567 66.3477 322.567C65.7682 322.567 65.293 322.727 64.9219 323.046C64.5573 323.358 64.2871 323.775 64.1113 324.296C63.9421 324.817 63.8574 325.386 63.8574 326.005V326.21ZM79.668 316.386H82.0898V331.386H79.8926L79.668 329.169V316.386ZM72.8125 326.015C72.8125 324.947 72.9785 324.009 73.3105 323.202C73.6491 322.388 74.1276 321.757 74.7461 321.308C75.3646 320.852 76.1068 320.624 76.9727 320.624C77.8255 320.624 78.5384 320.845 79.1113 321.288C79.6842 321.731 80.1335 322.346 80.459 323.134C80.791 323.915 81.0124 324.823 81.123 325.858V326.425C81.0124 327.427 80.7943 328.316 80.4688 329.091C80.1432 329.866 79.6908 330.474 79.1113 330.917C78.5384 331.36 77.819 331.581 76.9531 331.581C76.1003 331.581 75.3646 331.35 74.7461 330.888C74.1276 330.419 73.6491 329.781 73.3105 328.974C72.9785 328.166 72.8125 327.248 72.8125 326.22V326.015ZM75.2344 326.22C75.2344 326.845 75.3125 327.414 75.4688 327.929C75.625 328.437 75.8724 328.843 76.2109 329.149C76.556 329.449 77.0085 329.599 77.5684 329.599C78.0957 329.599 78.5286 329.485 78.8672 329.257C79.2122 329.022 79.4792 328.707 79.668 328.31C79.8633 327.912 79.9967 327.466 80.0684 326.972V325.321C80.0228 324.931 79.9414 324.569 79.8242 324.237C79.707 323.905 79.5475 323.619 79.3457 323.378C79.1504 323.137 78.9062 322.948 78.6133 322.812C78.3203 322.675 77.9785 322.606 77.5879 322.606C77.028 322.606 76.5723 322.759 76.2207 323.065C75.8757 323.365 75.625 323.775 75.4688 324.296C75.3125 324.81 75.2344 325.383 75.2344 326.015V326.22ZM90.4688 324.247C90.4688 323.7 90.3158 323.264 90.0098 322.938C89.7103 322.613 89.2546 322.45 88.6426 322.45C88.278 322.45 87.959 322.515 87.6855 322.646C87.4121 322.769 87.2005 322.938 87.0508 323.153C86.901 323.368 86.8262 323.612 86.8262 323.886H84.4043C84.4043 323.319 84.5833 322.789 84.9414 322.294C85.2995 321.793 85.804 321.389 86.4551 321.083C87.1126 320.777 87.8874 320.624 88.7793 320.624C89.5736 320.624 90.2799 320.757 90.8984 321.024C91.5169 321.291 92.002 321.695 92.3535 322.235C92.7116 322.776 92.8906 323.453 92.8906 324.267V328.925C92.8906 329.42 92.9264 329.856 92.998 330.233C93.0697 330.611 93.1706 330.94 93.3008 331.22V331.386H90.8203C90.7096 331.132 90.6217 330.803 90.5566 330.399C90.498 329.996 90.4688 329.602 90.4688 329.218V324.247ZM90.8398 326.444H89.1797C88.3203 326.444 87.6725 326.604 87.2363 326.923C86.8066 327.235 86.5918 327.662 86.5918 328.202C86.5918 328.619 86.735 328.967 87.0215 329.247C87.3079 329.521 87.7116 329.657 88.2324 329.657C88.7077 329.657 89.1211 329.563 89.4727 329.374C89.8307 329.179 90.1107 328.941 90.3125 328.661C90.5143 328.375 90.6185 328.108 90.625 327.86L91.3965 328.944C91.3184 329.211 91.1849 329.498 90.9961 329.804C90.8138 330.103 90.5697 330.39 90.2637 330.663C89.9642 330.93 89.6061 331.151 89.1895 331.327C88.7793 331.496 88.3008 331.581 87.7539 331.581C87.0638 331.581 86.4486 331.444 85.9082 331.171C85.3678 330.897 84.9414 330.523 84.6289 330.048C84.3229 329.566 84.1699 329.026 84.1699 328.427C84.1699 327.307 84.5898 326.448 85.4297 325.849C86.2695 325.25 87.4609 324.95 89.0039 324.95H90.8203L90.8398 326.444ZM101.24 320.819H103.828L99.5996 332.987C99.502 333.254 99.375 333.541 99.2188 333.847C99.0625 334.153 98.8574 334.442 98.6035 334.716C98.3561 334.989 98.0436 335.214 97.666 335.39C97.2949 335.565 96.8457 335.653 96.3184 335.653C96.1751 335.653 96.0352 335.644 95.8984 335.624C95.7682 335.611 95.6413 335.591 95.5176 335.565C95.3939 335.539 95.2734 335.51 95.1562 335.478V333.612C95.2214 333.619 95.2995 333.625 95.3906 333.632C95.4818 333.638 95.5566 333.642 95.6152 333.642C96.1947 333.642 96.6341 333.537 96.9336 333.329C97.2331 333.121 97.4642 332.766 97.627 332.265L98.3984 330.224L101.24 320.819ZM99.3164 328.642L99.7461 331.259L98.0664 331.64L94.248 320.819H96.8652L99.3164 328.642ZM107.402 330.81C107.402 331.487 107.233 332.18 106.895 332.89C106.556 333.599 106.11 334.188 105.557 334.657L104.258 333.915C104.44 333.622 104.606 333.326 104.756 333.026C104.906 332.727 105.026 332.405 105.117 332.06C105.208 331.715 105.254 331.33 105.254 330.907V329.091H107.402V330.81ZM116.592 329.452C117.484 329.452 118.229 329.338 118.828 329.11C119.434 328.882 119.912 328.563 120.264 328.153C120.615 327.737 120.866 327.252 121.016 326.698C121.172 326.138 121.25 325.526 121.25 324.862V322.343C121.25 321.594 121.146 320.966 120.938 320.458C120.729 319.95 120.452 319.569 120.107 319.315C119.762 319.055 119.378 318.925 118.955 318.925C118.486 318.925 118.086 319.062 117.754 319.335C117.422 319.608 117.168 319.97 116.992 320.419C116.823 320.868 116.738 321.36 116.738 321.894C116.738 322.401 116.82 322.88 116.982 323.329C117.145 323.778 117.393 324.143 117.725 324.423C118.057 324.696 118.477 324.833 118.984 324.833C119.329 324.833 119.652 324.765 119.951 324.628C120.251 324.485 120.511 324.299 120.732 324.071C120.954 323.843 121.13 323.586 121.26 323.3C121.39 323.007 121.465 322.707 121.484 322.401L122.402 322.724C122.402 323.205 122.298 323.684 122.09 324.159C121.888 324.634 121.608 325.067 121.25 325.458C120.892 325.842 120.472 326.148 119.99 326.376C119.515 326.604 119.001 326.718 118.447 326.718C117.536 326.718 116.774 326.5 116.162 326.063C115.557 325.621 115.101 325.038 114.795 324.315C114.489 323.593 114.336 322.805 114.336 321.952C114.336 321.034 114.518 320.201 114.883 319.452C115.254 318.697 115.785 318.095 116.475 317.646C117.165 317.196 117.995 316.972 118.965 316.972C119.727 316.972 120.4 317.118 120.986 317.411C121.579 317.704 122.07 318.114 122.461 318.642C122.858 319.169 123.158 319.784 123.359 320.487C123.568 321.184 123.672 321.936 123.672 322.743V323.603C123.672 324.455 123.594 325.272 123.438 326.054C123.288 326.835 123.047 327.554 122.715 328.212C122.383 328.869 121.94 329.442 121.387 329.931C120.84 330.419 120.173 330.8 119.385 331.073C118.597 331.34 117.673 331.474 116.611 331.474H116.406V329.452H116.592ZM137.051 317.167H139.57V327.099C139.57 328.043 139.368 328.85 138.965 329.521C138.561 330.185 138.008 330.696 137.305 331.054C136.602 331.405 135.804 331.581 134.912 331.581C134.007 331.581 133.203 331.428 132.5 331.122C131.803 330.81 131.253 330.338 130.85 329.706C130.452 329.068 130.254 328.264 130.254 327.294H132.773C132.773 328.108 132.969 328.69 133.359 329.042C133.757 329.387 134.274 329.56 134.912 329.56C135.335 329.56 135.706 329.465 136.025 329.276C136.344 329.081 136.595 328.801 136.777 328.437C136.96 328.072 137.051 327.626 137.051 327.099V317.167ZM148.047 324.247C148.047 323.7 147.894 323.264 147.588 322.938C147.288 322.613 146.833 322.45 146.221 322.45C145.856 322.45 145.537 322.515 145.264 322.646C144.99 322.769 144.779 322.938 144.629 323.153C144.479 323.368 144.404 323.612 144.404 323.886H141.982C141.982 323.319 142.161 322.789 142.52 322.294C142.878 321.793 143.382 321.389 144.033 321.083C144.691 320.777 145.465 320.624 146.357 320.624C147.152 320.624 147.858 320.757 148.477 321.024C149.095 321.291 149.58 321.695 149.932 322.235C150.29 322.776 150.469 323.453 150.469 324.267V328.925C150.469 329.42 150.505 329.856 150.576 330.233C150.648 330.611 150.749 330.94 150.879 331.22V331.386H148.398C148.288 331.132 148.2 330.803 148.135 330.399C148.076 329.996 148.047 329.602 148.047 329.218V324.247ZM148.418 326.444H146.758C145.898 326.444 145.251 326.604 144.814 326.923C144.385 327.235 144.17 327.662 144.17 328.202C144.17 328.619 144.313 328.967 144.6 329.247C144.886 329.521 145.29 329.657 145.811 329.657C146.286 329.657 146.699 329.563 147.051 329.374C147.409 329.179 147.689 328.941 147.891 328.661C148.092 328.375 148.197 328.108 148.203 327.86L148.975 328.944C148.896 329.211 148.763 329.498 148.574 329.804C148.392 330.103 148.148 330.39 147.842 330.663C147.542 330.93 147.184 331.151 146.768 331.327C146.357 331.496 145.879 331.581 145.332 331.581C144.642 331.581 144.027 331.444 143.486 331.171C142.946 330.897 142.52 330.523 142.207 330.048C141.901 329.566 141.748 329.026 141.748 328.427C141.748 327.307 142.168 326.448 143.008 325.849C143.848 325.25 145.039 324.95 146.582 324.95H148.398L148.418 326.444ZM155.312 331.386H152.891V320.819H155.166L155.312 323.075V331.386ZM154.102 325.731C154.108 324.709 154.287 323.817 154.639 323.056C154.99 322.287 155.482 321.692 156.113 321.269C156.745 320.839 157.48 320.624 158.32 320.624C159.004 320.624 159.596 320.754 160.098 321.015C160.599 321.269 160.99 321.685 161.27 322.265C161.549 322.838 161.689 323.609 161.689 324.579V331.386H159.258V324.56C159.258 324.071 159.186 323.684 159.043 323.397C158.906 323.111 158.698 322.909 158.418 322.792C158.145 322.668 157.809 322.606 157.412 322.606C157.008 322.606 156.65 322.688 156.338 322.851C156.032 323.007 155.768 323.228 155.547 323.515C155.332 323.801 155.166 324.133 155.049 324.511C154.938 324.888 154.883 325.292 154.883 325.722L154.102 325.731ZM170.4 320.819H172.822V331.386H170.537L170.4 328.886V320.819ZM171.543 326.659C171.543 327.61 171.403 328.456 171.123 329.198C170.843 329.934 170.407 330.517 169.814 330.946C169.222 331.369 168.454 331.581 167.51 331.581C166.468 331.581 165.625 331.275 164.98 330.663C164.336 330.051 164.014 329.045 164.014 327.646V320.819H166.436V327.665C166.436 328.153 166.51 328.541 166.66 328.827C166.816 329.107 167.021 329.306 167.275 329.423C167.529 329.54 167.809 329.599 168.115 329.599C168.773 329.599 169.29 329.472 169.668 329.218C170.052 328.957 170.326 328.606 170.488 328.163C170.651 327.72 170.732 327.226 170.732 326.679L171.543 326.659ZM181.133 324.247C181.133 323.7 180.98 323.264 180.674 322.938C180.374 322.613 179.919 322.45 179.307 322.45C178.942 322.45 178.623 322.515 178.35 322.646C178.076 322.769 177.865 322.938 177.715 323.153C177.565 323.368 177.49 323.612 177.49 323.886H175.068C175.068 323.319 175.247 322.789 175.605 322.294C175.964 321.793 176.468 321.389 177.119 321.083C177.777 320.777 178.551 320.624 179.443 320.624C180.238 320.624 180.944 320.757 181.562 321.024C182.181 321.291 182.666 321.695 183.018 322.235C183.376 322.776 183.555 323.453 183.555 324.267V328.925C183.555 329.42 183.59 329.856 183.662 330.233C183.734 330.611 183.835 330.94 183.965 331.22V331.386H181.484C181.374 331.132 181.286 330.803 181.221 330.399C181.162 329.996 181.133 329.602 181.133 329.218V324.247ZM181.504 326.444H179.844C178.984 326.444 178.337 326.604 177.9 326.923C177.471 327.235 177.256 327.662 177.256 328.202C177.256 328.619 177.399 328.967 177.686 329.247C177.972 329.521 178.376 329.657 178.896 329.657C179.372 329.657 179.785 329.563 180.137 329.374C180.495 329.179 180.775 328.941 180.977 328.661C181.178 328.375 181.283 328.108 181.289 327.86L182.061 328.944C181.982 329.211 181.849 329.498 181.66 329.804C181.478 330.103 181.234 330.39 180.928 330.663C180.628 330.93 180.27 331.151 179.854 331.327C179.443 331.496 178.965 331.581 178.418 331.581C177.728 331.581 177.113 331.444 176.572 331.171C176.032 330.897 175.605 330.523 175.293 330.048C174.987 329.566 174.834 329.026 174.834 328.427C174.834 327.307 175.254 326.448 176.094 325.849C176.934 325.25 178.125 324.95 179.668 324.95H181.484L181.504 326.444ZM188.428 331.386H186.006V320.819H188.311L188.428 322.89V331.386ZM191.611 323.046C191.462 323.02 191.302 323 191.133 322.987C190.97 322.974 190.807 322.968 190.645 322.968C190.111 322.968 189.665 323.065 189.307 323.261C188.955 323.45 188.688 323.723 188.506 324.081C188.324 324.433 188.216 324.849 188.184 325.331L187.627 325.341C187.627 324.449 187.744 323.648 187.979 322.938C188.213 322.229 188.564 321.666 189.033 321.249C189.502 320.832 190.088 320.624 190.791 320.624C190.928 320.624 191.081 320.637 191.25 320.663C191.419 320.689 191.546 320.718 191.631 320.751L191.611 323.046ZM198.994 320.819H201.582L197.354 332.987C197.256 333.254 197.129 333.541 196.973 333.847C196.816 334.153 196.611 334.442 196.357 334.716C196.11 334.989 195.798 335.214 195.42 335.39C195.049 335.565 194.6 335.653 194.072 335.653C193.929 335.653 193.789 335.644 193.652 335.624C193.522 335.611 193.395 335.591 193.271 335.565C193.148 335.539 193.027 335.51 192.91 335.478V333.612C192.975 333.619 193.053 333.625 193.145 333.632C193.236 333.638 193.311 333.642 193.369 333.642C193.949 333.642 194.388 333.537 194.688 333.329C194.987 333.121 195.218 332.766 195.381 332.265L196.152 330.224L198.994 320.819ZM197.07 328.642L197.5 331.259L195.82 331.64L192.002 320.819H194.619L197.07 328.642Z" fill="#ACAFAE"/>
<path d="M52.5293 27.9602L52.5488 26.4368H55.498C56.5072 26.4368 57.3503 26.2252 58.0273 25.802C58.7044 25.3723 59.2122 24.7734 59.5508 24.0051C59.8958 23.2304 60.0684 22.3222 60.0684 21.2805V20.4016C60.0684 19.3144 59.8958 18.3899 59.5508 17.6282C59.2122 16.8665 58.7142 16.2838 58.0566 15.8801C57.3991 15.4765 56.6016 15.2747 55.6641 15.2747H52.4707V13.7415H55.6641C56.9141 13.7415 58.0078 14.0149 58.9453 14.5618C59.8893 15.1021 60.625 15.8736 61.1523 16.8762C61.6797 17.8723 61.9434 19.054 61.9434 20.4211V21.2805C61.9434 22.6542 61.6797 23.8391 61.1523 24.8352C60.625 25.8313 59.8796 26.6028 58.916 27.1497C57.9525 27.69 56.8132 27.9602 55.498 27.9602H52.5293ZM53.5449 27.9602H51.6504V13.7415H53.5449V27.9602ZM70.7227 20.7141C70.7227 20.0826 70.5339 19.5813 70.1562 19.2102C69.7852 18.8326 69.235 18.6438 68.5059 18.6438C68.0566 18.6438 67.6595 18.7219 67.3145 18.8782C66.9759 19.0344 66.7122 19.2395 66.5234 19.4934C66.3346 19.7473 66.2402 20.024 66.2402 20.3235H64.4141C64.4141 19.8157 64.5866 19.3241 64.9316 18.8489C65.2767 18.3671 65.7617 17.9732 66.3867 17.6672C67.0182 17.3547 67.7604 17.1985 68.6133 17.1985C69.3815 17.1985 70.0618 17.3287 70.6543 17.5891C71.2467 17.8495 71.709 18.2434 72.041 18.7708C72.3796 19.2916 72.5488 19.9459 72.5488 20.7336V25.6555C72.5488 26.0071 72.5781 26.3814 72.6367 26.7786C72.7018 27.1757 72.7962 27.5175 72.9199 27.804V27.9602H71.0156C70.9245 27.7519 70.8529 27.4752 70.8008 27.1301C70.7487 26.7786 70.7227 26.453 70.7227 26.1536V20.7141ZM71.0547 22.8235H69.2383C68.2096 22.8235 67.4154 22.9862 66.8555 23.3118C66.2956 23.6373 66.0156 24.1256 66.0156 24.7766C66.0156 25.2844 66.1849 25.7141 66.5234 26.0657C66.8685 26.4172 67.3698 26.593 68.0273 26.593C68.5807 26.593 69.069 26.4758 69.4922 26.2415C69.9154 26.0071 70.2507 25.7174 70.498 25.3723C70.7454 25.0273 70.8789 24.6952 70.8984 24.3762L71.6797 25.2454C71.6341 25.5188 71.5104 25.8215 71.3086 26.1536C71.1068 26.4856 70.8366 26.8046 70.498 27.1106C70.166 27.4101 69.7689 27.6607 69.3066 27.8625C68.8509 28.0579 68.3366 28.1555 67.7637 28.1555C67.0475 28.1555 66.4193 28.0188 65.8789 27.7454C65.3451 27.4654 64.9284 27.0878 64.6289 26.6125C64.3359 26.1373 64.1895 25.6099 64.1895 25.0305C64.1895 23.8912 64.6191 23.0286 65.4785 22.4426C66.3379 21.8502 67.4935 21.554 68.9453 21.554H71.0352L71.0547 22.8235ZM77.373 27.9602H75.5469V17.3938H77.373V27.9602ZM75.4102 14.5813C75.4102 14.2948 75.498 14.0507 75.6738 13.8489C75.8561 13.6471 76.123 13.5461 76.4746 13.5461C76.8262 13.5461 77.0931 13.6471 77.2754 13.8489C77.4642 14.0507 77.5586 14.2948 77.5586 14.5813C77.5586 14.8612 77.4642 15.1021 77.2754 15.304C77.0931 15.4993 76.8262 15.5969 76.4746 15.5969C76.123 15.5969 75.8561 15.4993 75.6738 15.304C75.498 15.1021 75.4102 14.8612 75.4102 14.5813ZM82.2363 27.9602H80.4102V12.9602H82.2363V27.9602ZM91.0254 17.3938H92.9688L88.7305 29.5911C88.6328 29.8515 88.5026 30.1314 88.3398 30.4309C88.1836 30.7369 87.9818 31.0266 87.7344 31.3C87.4935 31.5735 87.1973 31.7948 86.8457 31.9641C86.4941 32.1399 86.0775 32.2278 85.5957 32.2278C85.498 32.2278 85.3809 32.218 85.2441 32.1985C85.1074 32.179 84.9772 32.1562 84.8535 32.1301C84.7298 32.1106 84.6354 32.0911 84.5703 32.0715V30.6165C84.6224 30.623 84.7038 30.6327 84.8145 30.6458C84.9316 30.6588 85.013 30.6653 85.0586 30.6653C85.6706 30.6653 86.1491 30.5383 86.4941 30.2844C86.8392 30.0305 87.1191 29.578 87.334 28.927L88.0859 26.8665L91.0254 17.3938ZM88.6816 25.6067L89.1504 27.511L87.8418 28.1653L83.9648 17.3938H85.957L88.6816 25.6067ZM107.402 24.3665C107.402 23.9172 107.308 23.5364 107.119 23.2239C106.93 22.9114 106.592 22.6282 106.104 22.3743C105.615 22.1204 104.922 21.8632 104.023 21.6028C103.32 21.401 102.686 21.1731 102.119 20.9192C101.559 20.6588 101.077 20.3625 100.674 20.0305C100.27 19.6985 99.9609 19.3176 99.7461 18.8879C99.5312 18.4583 99.4238 17.9667 99.4238 17.4133C99.4238 16.6711 99.6224 16.0103 100.02 15.4309C100.423 14.845 100.986 14.386 101.709 14.054C102.432 13.7154 103.278 13.5461 104.248 13.5461C105.322 13.5461 106.234 13.7512 106.982 14.1614C107.731 14.565 108.301 15.0956 108.691 15.7532C109.082 16.4042 109.277 17.1008 109.277 17.843H107.373C107.373 17.3092 107.259 16.8339 107.031 16.4172C106.81 16.0006 106.468 15.675 106.006 15.4407C105.544 15.1998 104.958 15.0793 104.248 15.0793C103.584 15.0793 103.034 15.1803 102.598 15.3821C102.168 15.5839 101.849 15.8573 101.641 16.2024C101.432 16.5474 101.328 16.9413 101.328 17.384C101.328 17.7812 101.442 18.136 101.67 18.4485C101.898 18.7545 102.256 19.0312 102.744 19.2786C103.232 19.526 103.864 19.7603 104.639 19.9817C105.713 20.2812 106.595 20.6295 107.285 21.0266C107.975 21.4237 108.483 21.8925 108.809 22.4329C109.141 22.9732 109.307 23.6112 109.307 24.3469C109.307 25.1152 109.102 25.7857 108.691 26.3586C108.281 26.9316 107.705 27.3743 106.963 27.6868C106.221 27.9993 105.348 28.1555 104.346 28.1555C103.688 28.1555 103.04 28.0644 102.402 27.8821C101.771 27.6998 101.195 27.4264 100.674 27.0618C100.16 26.6972 99.7461 26.248 99.4336 25.7141C99.1276 25.1737 98.9746 24.5487 98.9746 23.8391H100.869C100.869 24.3274 100.964 24.7473 101.152 25.0989C101.341 25.4504 101.598 25.7402 101.924 25.968C102.249 26.1959 102.62 26.3652 103.037 26.4758C103.454 26.58 103.89 26.6321 104.346 26.6321C105.003 26.6321 105.557 26.5409 106.006 26.3586C106.462 26.1698 106.807 25.9062 107.041 25.5676C107.282 25.2291 107.402 24.8287 107.402 24.3665ZM115.869 18.7708H110.146V17.3938H115.869V18.7708ZM113.896 14.8254V25.343C113.896 25.7076 113.952 25.981 114.062 26.1633C114.173 26.3456 114.316 26.4661 114.492 26.5247C114.668 26.5833 114.857 26.6125 115.059 26.6125C115.208 26.6125 115.365 26.5995 115.527 26.5735C115.697 26.5474 115.82 26.5247 115.898 26.5051L115.908 27.9602C115.765 28.0058 115.576 28.0481 115.342 28.0872C115.114 28.1327 114.837 28.1555 114.512 28.1555C114.069 28.1555 113.662 28.0676 113.291 27.8918C112.92 27.7161 112.624 27.4231 112.402 27.0129C112.181 26.5963 112.07 26.0364 112.07 25.3333V14.8254H113.896ZM117.207 22.5696C117.207 21.5474 117.402 20.6327 117.793 19.8254C118.184 19.0181 118.737 18.3801 119.453 17.9114C120.169 17.4361 121.019 17.1985 122.002 17.1985C122.998 17.1985 123.857 17.4361 124.58 17.9114C125.303 18.3801 125.856 19.0181 126.24 19.8254C126.631 20.6327 126.826 21.5474 126.826 22.5696V22.7942C126.826 23.8098 126.631 24.7245 126.24 25.5383C125.856 26.3456 125.303 26.9836 124.58 27.4524C123.864 27.9211 123.011 28.1555 122.021 28.1555C121.032 28.1555 120.176 27.9211 119.453 27.4524C118.737 26.9836 118.184 26.3456 117.793 25.5383C117.402 24.7245 117.207 23.8098 117.207 22.7942V22.5696ZM119.033 22.7942C119.033 23.4908 119.144 24.1353 119.365 24.7278C119.587 25.3202 119.915 25.7955 120.352 26.1536C120.794 26.5116 121.351 26.6907 122.021 26.6907C122.686 26.6907 123.236 26.5116 123.672 26.1536C124.115 25.7955 124.447 25.3202 124.668 24.7278C124.889 24.1353 125 23.4908 125 22.7942V22.5696C125 21.873 124.889 21.2284 124.668 20.636C124.447 20.0435 124.115 19.5683 123.672 19.2102C123.229 18.8456 122.673 18.6633 122.002 18.6633C121.344 18.6633 120.794 18.8456 120.352 19.2102C119.909 19.5683 119.577 20.0435 119.355 20.636C119.141 21.2284 119.033 21.873 119.033 22.5696V22.7942ZM130.928 27.9602H129.102V17.3938H130.879L130.928 19.054V27.9602ZM134.219 19.0051C134.062 18.9726 133.916 18.953 133.779 18.9465C133.649 18.9335 133.499 18.927 133.33 18.927C132.777 18.927 132.308 19.0409 131.924 19.2688C131.546 19.4967 131.253 19.8124 131.045 20.2161C130.837 20.6132 130.706 21.0689 130.654 21.5833L130.137 21.8762C130.137 21.0234 130.251 20.2454 130.479 19.5422C130.706 18.8326 131.061 18.2662 131.543 17.843C132.031 17.4133 132.656 17.1985 133.418 17.1985C133.542 17.1985 133.688 17.2148 133.857 17.2473C134.033 17.2734 134.154 17.3027 134.219 17.3352V19.0051ZM137.861 27.9602H136.035V17.3938H137.861V27.9602ZM135.898 14.5813C135.898 14.2948 135.986 14.0507 136.162 13.8489C136.344 13.6471 136.611 13.5461 136.963 13.5461C137.314 13.5461 137.581 13.6471 137.764 13.8489C137.952 14.0507 138.047 14.2948 138.047 14.5813C138.047 14.8612 137.952 15.1021 137.764 15.304C137.581 15.4993 137.314 15.5969 136.963 15.5969C136.611 15.5969 136.344 15.4993 136.162 15.304C135.986 15.1021 135.898 14.8612 135.898 14.5813ZM146.289 27.9602H144.414V13.7415H146.289V27.9602ZM150.85 15.2747H139.863V13.7415H150.85V15.2747ZM154.658 27.9602H152.832V17.3938H154.658V27.9602ZM152.695 14.5813C152.695 14.2948 152.783 14.0507 152.959 13.8489C153.141 13.6471 153.408 13.5461 153.76 13.5461C154.111 13.5461 154.378 13.6471 154.561 13.8489C154.749 14.0507 154.844 14.2948 154.844 14.5813C154.844 14.8612 154.749 15.1021 154.561 15.304C154.378 15.4993 154.111 15.5969 153.76 15.5969C153.408 15.5969 153.141 15.4993 152.959 15.304C152.783 15.1021 152.695 14.8612 152.695 14.5813ZM159.355 27.9602H157.529V17.3938H159.258L159.355 19.4934V27.9602ZM158.135 22.2375C158.141 21.274 158.304 20.4146 158.623 19.6594C158.949 18.8977 159.427 18.2987 160.059 17.8625C160.697 17.4198 161.488 17.1985 162.432 17.1985C163.421 17.1985 164.238 17.4882 164.883 18.0676C165.527 18.6471 165.85 19.5976 165.85 20.9192V27.9602H164.023V21.0071C164.023 20.4537 163.929 20.011 163.74 19.679C163.558 19.3404 163.298 19.0963 162.959 18.9465C162.62 18.7903 162.223 18.7122 161.768 18.7122C161.24 18.7122 160.798 18.8066 160.439 18.9954C160.088 19.1842 159.805 19.4446 159.59 19.7766C159.375 20.1086 159.219 20.4895 159.121 20.9192C159.03 21.3424 158.984 21.7916 158.984 22.2668L158.135 22.2375ZM164.609 21.6418C164.616 20.8736 164.779 20.151 165.098 19.4739C165.423 18.7968 165.898 18.2499 166.523 17.8333C167.148 17.4101 167.91 17.1985 168.809 17.1985C169.564 17.1985 170.205 17.3319 170.732 17.5989C171.26 17.8658 171.66 18.2792 171.934 18.8391C172.207 19.399 172.344 20.1249 172.344 21.0168V27.9602H170.518V20.9973C170.518 20.4049 170.423 19.9426 170.234 19.6106C170.052 19.2786 169.792 19.0474 169.453 18.9172C169.121 18.7805 168.727 18.7122 168.271 18.7122C167.874 18.7122 167.523 18.7805 167.217 18.9172C166.917 19.054 166.663 19.2428 166.455 19.4836C166.253 19.718 166.097 19.9882 165.986 20.2942C165.882 20.6002 165.83 20.9257 165.83 21.2708L164.609 21.6418ZM179.473 28.1555C178.49 28.1555 177.633 27.9374 176.904 27.5012C176.182 27.0585 175.618 26.453 175.215 25.6848C174.818 24.9166 174.619 24.0377 174.619 23.0481V22.6282C174.619 21.4823 174.837 20.5058 175.273 19.6985C175.716 18.8847 176.289 18.2662 176.992 17.843C177.702 17.4133 178.451 17.1985 179.238 17.1985C180.254 17.1985 181.081 17.4264 181.719 17.8821C182.363 18.3313 182.835 18.9465 183.135 19.7278C183.441 20.5025 183.594 21.3814 183.594 22.3645V23.175H175.703V21.7102H181.768V21.5735C181.742 21.1047 181.647 20.649 181.484 20.2063C181.322 19.7571 181.061 19.3892 180.703 19.1028C180.345 18.8098 179.857 18.6633 179.238 18.6633C178.691 18.6633 178.206 18.8196 177.783 19.1321C177.367 19.4381 177.038 19.8873 176.797 20.4797C176.562 21.0657 176.445 21.7818 176.445 22.6282V23.0481C176.445 23.7187 176.569 24.3306 176.816 24.884C177.064 25.4309 177.422 25.8704 177.891 26.2024C178.359 26.5279 178.919 26.6907 179.57 26.6907C180.208 26.6907 180.749 26.5605 181.191 26.3C181.634 26.0396 182.021 25.6913 182.354 25.2551L183.457 26.1145C183.118 26.6353 182.63 27.1073 181.992 27.5305C181.361 27.9472 180.521 28.1555 179.473 28.1555Z" fill="#ACAFAE"/>
<path d="M60.5938 87.7861C61.3229 87.7861 61.9271 87.6611 62.4062 87.4111C62.8854 87.1611 63.2396 86.807 63.4688 86.3486C63.7083 85.8903 63.8281 85.3538 63.8281 84.7393C63.8281 84.208 63.7188 83.734 63.5 83.3174C63.2917 82.9007 62.9688 82.5726 62.5312 82.333C62.0938 82.083 61.5417 81.958 60.875 81.958C60.3646 81.958 59.8854 82.057 59.4375 82.2549C58.9896 82.4528 58.6302 82.734 58.3594 83.0986C58.0885 83.4528 57.9531 83.8747 57.9531 84.3643H53.2344C53.2344 83.1038 53.5729 82.0101 54.25 81.083C54.9271 80.1559 55.8333 79.4372 56.9688 78.9268C58.1146 78.4163 59.375 78.1611 60.75 78.1611C62.3021 78.1611 63.6615 78.4111 64.8281 78.9111C66.0052 79.4007 66.9219 80.1299 67.5781 81.0986C68.2344 82.057 68.5625 83.2445 68.5625 84.6611C68.5625 85.4007 68.3906 86.109 68.0469 86.7861C67.7135 87.4632 67.2344 88.0674 66.6094 88.5986C65.9844 89.1299 65.2292 89.5518 64.3438 89.8643C63.4583 90.1768 62.4635 90.333 61.3594 90.333H58.1562V87.7861H60.5938ZM58.1562 88.9736H61.3594C62.599 88.9736 63.6875 89.1143 64.625 89.3955C65.5625 89.6663 66.349 90.0622 66.9844 90.583C67.6198 91.0934 68.099 91.7132 68.4219 92.4424C68.7448 93.1611 68.9062 93.9632 68.9062 94.8486C68.9062 96.2653 68.5469 97.4736 67.8281 98.4736C67.1094 99.4736 66.1354 100.239 64.9062 100.771C63.6771 101.291 62.2917 101.552 60.75 101.552C59.7812 101.552 58.8333 101.422 57.9062 101.161C56.9792 100.89 56.1406 100.489 55.3906 99.958C54.651 99.4268 54.0573 98.7497 53.6094 97.9268C53.1615 97.0934 52.9375 96.1143 52.9375 94.9893H57.6875C57.6875 95.5101 57.8229 95.9788 58.0938 96.3955C58.375 96.8122 58.7552 97.1455 59.2344 97.3955C59.7135 97.6351 60.2604 97.7549 60.875 97.7549C61.9062 97.7549 62.7135 97.4788 63.2969 96.9268C63.8906 96.3643 64.1875 95.6455 64.1875 94.7705C64.1875 93.9788 64.0417 93.3434 63.75 92.8643C63.4583 92.3747 63.0469 92.0205 62.5156 91.8018C61.9844 91.583 61.3438 91.4736 60.5938 91.4736H58.1562V88.9736ZM76.0631 101.239H71.3288V77.2393H76.0631V101.239ZM74.1256 92.2861C74.1256 90.682 74.386 89.2601 74.9069 88.0205C75.4381 86.7809 76.1829 85.807 77.1413 85.0986C78.0996 84.3799 79.2194 84.0205 80.5006 84.0205C81.6152 84.0205 82.5892 84.2393 83.4225 84.6768C84.2663 85.1038 84.9225 85.8018 85.3913 86.7705C85.8704 87.7288 86.11 89.0153 86.11 90.6299V101.239H81.3756V90.5986C81.3756 89.8903 81.2715 89.3382 81.0631 88.9424C80.8652 88.5361 80.5683 88.2549 80.1725 88.0986C79.7871 87.932 79.3131 87.8486 78.7506 87.8486C78.1256 87.8486 77.5996 87.958 77.1725 88.1768C76.7454 88.3851 76.3965 88.6872 76.1256 89.083C75.8652 89.4788 75.6777 89.9476 75.5631 90.4893C75.4485 91.0205 75.3913 91.5986 75.3913 92.2236L74.1256 92.2861ZM96.5644 90.083L97.8925 78.4893H110.768V82.3799H101.768L101.221 87.0986C101.512 86.9424 101.955 86.7653 102.549 86.5674C103.153 86.3695 103.83 86.2705 104.58 86.2705C106.059 86.2705 107.314 86.5726 108.346 87.1768C109.377 87.7809 110.163 88.6559 110.705 89.8018C111.257 90.9372 111.533 92.3122 111.533 93.9268C111.533 95.2601 111.252 96.5101 110.689 97.6768C110.137 98.833 109.288 99.7705 108.143 100.489C106.997 101.198 105.549 101.552 103.799 101.552C102.799 101.552 101.835 101.401 100.908 101.099C99.9915 100.797 99.1685 100.359 98.4394 99.7861C97.7102 99.2028 97.1269 98.4997 96.6894 97.6768C96.2623 96.8434 96.0383 95.9059 96.0175 94.8643H100.705C100.788 95.7601 101.101 96.4684 101.643 96.9893C102.184 97.4997 102.893 97.7549 103.768 97.7549C104.507 97.7549 105.101 97.5726 105.549 97.208C105.997 96.833 106.32 96.333 106.518 95.708C106.715 95.083 106.814 94.3903 106.814 93.6299C106.814 92.859 106.684 92.1872 106.424 91.6143C106.174 91.0309 105.788 90.5778 105.268 90.2549C104.747 89.932 104.08 89.7705 103.268 89.7705C102.465 89.7705 101.846 89.9007 101.408 90.1611C100.971 90.4215 100.611 90.7028 100.33 91.0049L96.5644 90.083ZM129.174 91.8486C129.174 94.109 128.851 95.9528 128.206 97.3799C127.56 98.807 126.654 99.859 125.487 100.536C124.331 101.213 122.987 101.552 121.456 101.552C119.924 101.552 118.57 101.213 117.393 100.536C116.226 99.859 115.315 98.807 114.659 97.3799C114.013 95.9528 113.69 94.109 113.69 91.8486V87.8486C113.69 85.5778 114.013 83.734 114.659 82.3174C115.305 80.9007 116.211 79.859 117.377 79.1924C118.544 78.5153 119.893 78.1768 121.424 78.1768C122.956 78.1768 124.299 78.5153 125.456 79.1924C126.622 79.859 127.534 80.9007 128.19 82.3174C128.846 83.734 129.174 85.5778 129.174 87.8486V91.8486ZM124.44 87.1924C124.44 85.8903 124.32 84.8643 124.081 84.1143C123.841 83.3538 123.497 82.8122 123.049 82.4893C122.601 82.1559 122.06 81.9893 121.424 81.9893C120.789 81.9893 120.242 82.1559 119.784 82.4893C119.336 82.8122 118.992 83.3538 118.752 84.1143C118.523 84.8643 118.409 85.8903 118.409 87.1924V92.4736C118.409 93.7861 118.529 94.8278 118.768 95.5986C119.008 96.3695 119.357 96.9215 119.815 97.2549C120.273 97.5882 120.82 97.7549 121.456 97.7549C122.091 97.7549 122.627 97.5882 123.065 97.2549C123.513 96.9215 123.851 96.3695 124.081 95.5986C124.32 94.8278 124.44 93.7861 124.44 92.4736V87.1924ZM136.394 101.239H131.675V84.333H136.113L136.394 87.8643V101.239ZM134.441 92.2861C134.441 90.682 134.691 89.2601 135.191 88.0205C135.691 86.7809 136.43 85.807 137.409 85.0986C138.399 84.3799 139.623 84.0205 141.081 84.0205C142.581 84.0205 143.805 84.484 144.753 85.4111C145.701 86.3278 146.175 87.8434 146.175 89.958V101.239H141.456V90.5361C141.456 89.8174 141.357 89.2653 141.159 88.8799C140.972 88.484 140.696 88.2132 140.331 88.0674C139.967 87.9215 139.529 87.8486 139.019 87.8486C138.467 87.8486 137.982 87.958 137.566 88.1768C137.149 88.3851 136.805 88.6872 136.534 89.083C136.264 89.4788 136.06 89.9476 135.925 90.4893C135.8 91.0205 135.738 91.5986 135.738 92.2236L134.441 92.2861ZM144.066 92.0986C144.055 90.5674 144.29 89.1924 144.769 87.9736C145.258 86.7549 145.988 85.7913 146.956 85.083C147.925 84.3747 149.128 84.0205 150.566 84.0205C151.649 84.0205 152.597 84.2288 153.409 84.6455C154.222 85.0622 154.852 85.7445 155.3 86.6924C155.748 87.6403 155.972 88.9111 155.972 90.5049V101.239H151.222V90.4893C151.222 89.7601 151.123 89.208 150.925 88.833C150.738 88.458 150.461 88.2028 150.097 88.0674C149.743 87.9215 149.316 87.8486 148.816 87.8486C148.295 87.8486 147.842 87.9476 147.456 88.1455C147.081 88.3434 146.764 88.6299 146.503 89.0049C146.253 89.3695 146.06 89.8018 145.925 90.3018C145.8 90.7913 145.738 91.3278 145.738 91.9111L144.066 92.0986Z" fill="#09090F"/>
<path d="M60.5938 357.017C61.3229 357.017 61.9271 356.892 62.4062 356.642C62.8854 356.392 63.2396 356.037 63.4688 355.579C63.7083 355.121 63.8281 354.584 63.8281 353.97C63.8281 353.438 63.7188 352.965 63.5 352.548C63.2917 352.131 62.9688 351.803 62.5312 351.563C62.0938 351.313 61.5417 351.188 60.875 351.188C60.3646 351.188 59.8854 351.287 59.4375 351.485C58.9896 351.683 58.6302 351.965 58.3594 352.329C58.0885 352.683 57.9531 353.105 57.9531 353.595H53.2344C53.2344 352.334 53.5729 351.241 54.25 350.313C54.9271 349.386 55.8333 348.668 56.9688 348.157C58.1146 347.647 59.375 347.392 60.75 347.392C62.3021 347.392 63.6615 347.642 64.8281 348.142C66.0052 348.631 66.9219 349.36 67.5781 350.329C68.2344 351.287 68.5625 352.475 68.5625 353.892C68.5625 354.631 68.3906 355.34 68.0469 356.017C67.7135 356.694 67.2344 357.298 66.6094 357.829C65.9844 358.36 65.2292 358.782 64.3438 359.095C63.4583 359.407 62.4635 359.563 61.3594 359.563H58.1562V357.017H60.5938ZM58.1562 358.204H61.3594C62.599 358.204 63.6875 358.345 64.625 358.626C65.5625 358.897 66.349 359.293 66.9844 359.813C67.6198 360.324 68.099 360.944 68.4219 361.673C68.7448 362.392 68.9062 363.194 68.9062 364.079C68.9062 365.496 68.5469 366.704 67.8281 367.704C67.1094 368.704 66.1354 369.47 64.9062 370.001C63.6771 370.522 62.2917 370.782 60.75 370.782C59.7812 370.782 58.8333 370.652 57.9062 370.392C56.9792 370.121 56.1406 369.72 55.3906 369.188C54.651 368.657 54.0573 367.98 53.6094 367.157C53.1615 366.324 52.9375 365.345 52.9375 364.22H57.6875C57.6875 364.741 57.8229 365.209 58.0938 365.626C58.375 366.043 58.7552 366.376 59.2344 366.626C59.7135 366.866 60.2604 366.985 60.875 366.985C61.9062 366.985 62.7135 366.709 63.2969 366.157C63.8906 365.595 64.1875 364.876 64.1875 364.001C64.1875 363.209 64.0417 362.574 63.75 362.095C63.4583 361.605 63.0469 361.251 62.5156 361.032C61.9844 360.813 61.3438 360.704 60.5938 360.704H58.1562V358.204ZM76.0631 370.47H71.3288V346.47H76.0631V370.47ZM74.1256 361.517C74.1256 359.912 74.386 358.491 74.9069 357.251C75.4381 356.011 76.1829 355.037 77.1413 354.329C78.0996 353.61 79.2194 353.251 80.5006 353.251C81.6152 353.251 82.5892 353.47 83.4225 353.907C84.2663 354.334 84.9225 355.032 85.3913 356.001C85.8704 356.959 86.11 358.246 86.11 359.86V370.47H81.3756V359.829C81.3756 359.121 81.2715 358.569 81.0631 358.173C80.8652 357.767 80.5683 357.485 80.1725 357.329C79.7871 357.162 79.3131 357.079 78.7506 357.079C78.1256 357.079 77.5996 357.188 77.1725 357.407C76.7454 357.616 76.3965 357.918 76.1256 358.313C75.8652 358.709 75.6777 359.178 75.5631 359.72C75.4485 360.251 75.3913 360.829 75.3913 361.454L74.1256 361.517ZM96.5644 359.313L97.8925 347.72H110.768V351.61H101.768L101.221 356.329C101.512 356.173 101.955 355.996 102.549 355.798C103.153 355.6 103.83 355.501 104.58 355.501C106.059 355.501 107.314 355.803 108.346 356.407C109.377 357.011 110.163 357.886 110.705 359.032C111.257 360.168 111.533 361.543 111.533 363.157C111.533 364.491 111.252 365.741 110.689 366.907C110.137 368.063 109.288 369.001 108.143 369.72C106.997 370.428 105.549 370.782 103.799 370.782C102.799 370.782 101.835 370.631 100.908 370.329C99.9915 370.027 99.1685 369.59 98.4394 369.017C97.7102 368.433 97.1269 367.73 96.6894 366.907C96.2623 366.074 96.0383 365.136 96.0175 364.095H100.705C100.788 364.991 101.101 365.699 101.643 366.22C102.184 366.73 102.893 366.985 103.768 366.985C104.507 366.985 105.101 366.803 105.549 366.438C105.997 366.063 106.32 365.563 106.518 364.938C106.715 364.313 106.814 363.621 106.814 362.86C106.814 362.09 106.684 361.418 106.424 360.845C106.174 360.261 105.788 359.808 105.268 359.485C104.747 359.162 104.08 359.001 103.268 359.001C102.465 359.001 101.846 359.131 101.408 359.392C100.971 359.652 100.611 359.933 100.33 360.235L96.5644 359.313ZM129.174 361.079C129.174 363.34 128.851 365.183 128.206 366.61C127.56 368.037 126.654 369.09 125.487 369.767C124.331 370.444 122.987 370.782 121.456 370.782C119.924 370.782 118.57 370.444 117.393 369.767C116.226 369.09 115.315 368.037 114.659 366.61C114.013 365.183 113.69 363.34 113.69 361.079V357.079C113.69 354.808 114.013 352.965 114.659 351.548C115.305 350.131 116.211 349.09 117.377 348.423C118.544 347.746 119.893 347.407 121.424 347.407C122.956 347.407 124.299 347.746 125.456 348.423C126.622 349.09 127.534 350.131 128.19 351.548C128.846 352.965 129.174 354.808 129.174 357.079V361.079ZM124.44 356.423C124.44 355.121 124.32 354.095 124.081 353.345C123.841 352.584 123.497 352.043 123.049 351.72C122.601 351.386 122.06 351.22 121.424 351.22C120.789 351.22 120.242 351.386 119.784 351.72C119.336 352.043 118.992 352.584 118.752 353.345C118.523 354.095 118.409 355.121 118.409 356.423V361.704C118.409 363.017 118.529 364.058 118.768 364.829C119.008 365.6 119.357 366.152 119.815 366.485C120.273 366.819 120.82 366.985 121.456 366.985C122.091 366.985 122.627 366.819 123.065 366.485C123.513 366.152 123.851 365.6 124.081 364.829C124.32 364.058 124.44 363.017 124.44 361.704V356.423ZM136.394 370.47H131.675V353.563H136.113L136.394 357.095V370.47ZM134.441 361.517C134.441 359.912 134.691 358.491 135.191 357.251C135.691 356.011 136.43 355.037 137.409 354.329C138.399 353.61 139.623 353.251 141.081 353.251C142.581 353.251 143.805 353.715 144.753 354.642C145.701 355.558 146.175 357.074 146.175 359.188V370.47H141.456V359.767C141.456 359.048 141.357 358.496 141.159 358.11C140.972 357.715 140.696 357.444 140.331 357.298C139.967 357.152 139.529 357.079 139.019 357.079C138.467 357.079 137.982 357.188 137.566 357.407C137.149 357.616 136.805 357.918 136.534 358.313C136.264 358.709 136.06 359.178 135.925 359.72C135.8 360.251 135.738 360.829 135.738 361.454L134.441 361.517ZM144.066 361.329C144.055 359.798 144.29 358.423 144.769 357.204C145.258 355.985 145.988 355.022 146.956 354.313C147.925 353.605 149.128 353.251 150.566 353.251C151.649 353.251 152.597 353.459 153.409 353.876C154.222 354.293 154.852 354.975 155.3 355.923C155.748 356.871 155.972 358.142 155.972 359.735V370.47H151.222V359.72C151.222 358.991 151.123 358.438 150.925 358.063C150.738 357.688 150.461 357.433 150.097 357.298C149.743 357.152 149.316 357.079 148.816 357.079C148.295 357.079 147.842 357.178 147.456 357.376C147.081 357.574 146.764 357.86 146.503 358.235C146.253 358.6 146.06 359.032 145.925 359.532C145.8 360.022 145.738 360.558 145.738 361.142L144.066 361.329Z" fill="#09090F"/>
<g clip-path="url(#clip0_177_27928)">
<g opacity="0.7">
<path opacity="0.7" d="M42.9414 151.832H41.1719V145.393L39.1738 145.996V144.566L42.7598 143.289H42.9414V151.832ZM51.543 151.832H45.666V150.625L48.4199 147.695C48.6934 147.398 48.9082 147.139 49.0645 146.916C49.2246 146.689 49.3379 146.484 49.4043 146.301C49.4707 146.117 49.5039 145.945 49.5039 145.785C49.5039 145.414 49.4121 145.125 49.2285 144.918C49.0488 144.707 48.7891 144.602 48.4492 144.602C48.1953 144.602 47.9805 144.664 47.8047 144.789C47.6289 144.91 47.4941 145.076 47.4004 145.287C47.3105 145.494 47.2656 145.732 47.2656 146.002H45.4961C45.4961 145.486 45.6172 145.016 45.8594 144.59C46.1016 144.16 46.4453 143.818 46.8906 143.564C47.3398 143.307 47.8711 143.178 48.4844 143.178C49.3945 143.178 50.0879 143.395 50.5645 143.828C51.041 144.262 51.2793 144.857 51.2793 145.615C51.2793 146.002 51.2012 146.371 51.0449 146.723C50.8887 147.074 50.666 147.428 50.377 147.783C50.0918 148.139 49.7559 148.518 49.3691 148.92L47.9512 150.408H51.543V151.832Z" fill="#171832"/>
<path opacity="0.7" d="M46.9902 191.443C47.4434 191.443 47.8359 191.393 48.168 191.291C48.5039 191.189 48.7793 191.039 48.9941 190.84C49.209 190.637 49.3672 190.385 49.4688 190.084C49.5742 189.779 49.627 189.426 49.627 189.023V187.336C49.627 186.949 49.5762 186.629 49.4746 186.375C49.377 186.117 49.2402 185.926 49.0645 185.801C48.8926 185.672 48.6973 185.607 48.4785 185.607C48.2402 185.607 48.0371 185.684 47.8691 185.836C47.7051 185.988 47.5801 186.186 47.4941 186.428C47.4082 186.666 47.3652 186.92 47.3652 187.189C47.3652 187.471 47.4062 187.729 47.4883 187.963C47.5742 188.197 47.7031 188.385 47.875 188.525C48.0508 188.662 48.2715 188.73 48.5371 188.73C48.7207 188.73 48.8867 188.697 49.0352 188.631C49.1875 188.561 49.3145 188.469 49.416 188.355C49.5215 188.242 49.6035 188.115 49.6621 187.975C49.7207 187.834 49.752 187.693 49.7559 187.553L50.3301 187.922C50.3301 188.18 50.2715 188.438 50.1543 188.695C50.041 188.949 49.8809 189.182 49.6738 189.393C49.4668 189.6 49.2266 189.766 48.9531 189.891C48.6836 190.016 48.3965 190.078 48.0918 190.078C47.5605 190.078 47.1094 189.955 46.7383 189.709C46.3672 189.459 46.084 189.117 45.8887 188.684C45.6934 188.25 45.5957 187.758 45.5957 187.207C45.5957 186.652 45.7148 186.146 45.9531 185.689C46.1914 185.229 46.5273 184.861 46.9609 184.588C47.3945 184.314 47.9023 184.178 48.4844 184.178C48.918 184.178 49.3125 184.26 49.668 184.424C50.0273 184.584 50.3359 184.818 50.5938 185.127C50.8516 185.432 51.0488 185.799 51.1855 186.229C51.3262 186.654 51.3965 187.133 51.3965 187.664V188.273C51.3965 188.844 51.3359 189.369 51.2148 189.85C51.0938 190.33 50.9141 190.762 50.6758 191.145C50.4375 191.523 50.1406 191.846 49.7852 192.111C49.4336 192.377 49.0254 192.58 48.5605 192.721C48.0996 192.857 47.584 192.926 47.0137 192.926H46.8789V191.443H46.9902Z" fill="#171832"/>
<path opacity="0.7" d="M50.3008 225.201V226.66H50.1953C49.7578 226.66 49.3672 226.721 49.0234 226.842C48.6836 226.963 48.3945 227.139 48.1562 227.369C47.9219 227.6 47.7441 227.881 47.623 228.213C47.502 228.541 47.4414 228.912 47.4414 229.326V230.779C47.4414 231.17 47.4922 231.494 47.5938 231.752C47.6953 232.01 47.8379 232.203 48.0215 232.332C48.2051 232.457 48.418 232.52 48.6602 232.52C48.8984 232.52 49.1055 232.455 49.2812 232.326C49.457 232.197 49.5938 232.02 49.6914 231.793C49.7891 231.566 49.8379 231.311 49.8379 231.025C49.8379 230.729 49.7871 230.469 49.6855 230.246C49.5879 230.02 49.4492 229.844 49.2695 229.719C49.0898 229.59 48.875 229.525 48.625 229.525C48.3633 229.525 48.1367 229.584 47.9453 229.701C47.7539 229.818 47.6055 229.967 47.5 230.146C47.3945 230.326 47.3379 230.512 47.3301 230.703L46.8086 230.316C46.8203 230.039 46.8828 229.77 46.9961 229.508C47.1094 229.246 47.2676 229.01 47.4707 228.799C47.6777 228.588 47.9238 228.42 48.209 228.295C48.4941 228.17 48.8164 228.107 49.1758 228.107C49.7109 228.107 50.1582 228.24 50.5176 228.506C50.877 228.768 51.1465 229.119 51.3262 229.561C51.5098 229.998 51.6016 230.484 51.6016 231.02C51.6016 231.57 51.4805 232.068 51.2383 232.514C51 232.955 50.6641 233.305 50.2305 233.562C49.7969 233.82 49.2871 233.949 48.7012 233.949C48.2441 233.949 47.8301 233.867 47.459 233.703C47.0879 233.539 46.7676 233.309 46.498 233.012C46.2324 232.711 46.0273 232.352 45.8828 231.934C45.7383 231.512 45.666 231.045 45.666 230.533V229.871C45.666 229.176 45.7676 228.543 45.9707 227.973C46.1738 227.398 46.4648 226.906 46.8438 226.496C47.2266 226.082 47.6875 225.764 48.2266 225.541C48.7656 225.314 49.3711 225.201 50.043 225.201H50.3008Z" fill="#171832"/>
<path opacity="0.7" d="M48.3203 269.787C48.5938 269.787 48.8203 269.74 49 269.646C49.1797 269.553 49.3125 269.42 49.3984 269.248C49.4883 269.076 49.5332 268.875 49.5332 268.645C49.5332 268.445 49.4922 268.268 49.4102 268.111C49.332 267.955 49.2109 267.832 49.0469 267.742C48.8828 267.648 48.6758 267.602 48.4258 267.602C48.2344 267.602 48.0547 267.639 47.8867 267.713C47.7188 267.787 47.584 267.893 47.4824 268.029C47.3809 268.162 47.3301 268.32 47.3301 268.504H45.5605C45.5605 268.031 45.6875 267.621 45.9414 267.273C46.1953 266.926 46.5352 266.656 46.9609 266.465C47.3906 266.273 47.8633 266.178 48.3789 266.178C48.9609 266.178 49.4707 266.271 49.9082 266.459C50.3496 266.643 50.6934 266.916 50.9395 267.279C51.1855 267.639 51.3086 268.084 51.3086 268.615C51.3086 268.893 51.2441 269.158 51.1152 269.412C50.9902 269.666 50.8105 269.893 50.5762 270.092C50.3418 270.291 50.0586 270.449 49.7266 270.566C49.3945 270.684 49.0215 270.742 48.6074 270.742H47.4062V269.787H48.3203ZM47.4062 270.232H48.6074C49.0723 270.232 49.4805 270.285 49.832 270.391C50.1836 270.492 50.4785 270.641 50.7168 270.836C50.9551 271.027 51.1348 271.26 51.2559 271.533C51.377 271.803 51.4375 272.104 51.4375 272.436C51.4375 272.967 51.3027 273.42 51.0332 273.795C50.7637 274.17 50.3984 274.457 49.9375 274.656C49.4766 274.852 48.957 274.949 48.3789 274.949C48.0156 274.949 47.6602 274.9 47.3125 274.803C46.9648 274.701 46.6504 274.551 46.3691 274.352C46.0918 274.152 45.8691 273.898 45.7012 273.59C45.5332 273.277 45.4492 272.91 45.4492 272.488H47.2305C47.2305 272.684 47.2812 272.859 47.3828 273.016C47.4883 273.172 47.6309 273.297 47.8105 273.391C47.9902 273.48 48.1953 273.525 48.4258 273.525C48.8125 273.525 49.1152 273.422 49.334 273.215C49.5566 273.004 49.668 272.734 49.668 272.406C49.668 272.109 49.6133 271.871 49.5039 271.691C49.3945 271.508 49.2402 271.375 49.041 271.293C48.8418 271.211 48.6016 271.17 48.3203 271.17H47.4062V270.232Z" fill="#171832"/>
</g>
<g opacity="0.2">
<rect opacity="0.1" x="66" y="126.832" width="21.1972" height="200" rx="5" fill="#09090F"/>
<rect opacity="0.1" x="117.197" y="126.832" width="21.1972" height="200" rx="5" fill="#09090F"/>
<rect opacity="0.1" x="168.395" y="126.832" width="21.1972" height="200" rx="5" fill="#09090F"/>
<rect opacity="0.1" x="219.592" y="126.832" width="21.1972" height="200" rx="5" fill="#09090F"/>
<rect opacity="0.1" x="270.789" y="126.832" width="21.1972" height="200" rx="5" fill="#09090F"/>
<rect opacity="0.1" x="321.986" y="126.832" width="21.1972" height="200" rx="5" fill="#09090F"/>
<rect opacity="0.1" x="373.184" y="126.832" width="21.1972" height="200" rx="5" fill="#09090F"/>
<rect opacity="0.1" x="424.381" y="126.832" width="21.1972" height="200" rx="5" fill="#20E682"/>
<rect opacity="0.1" x="475.578" y="126.832" width="21.1972" height="200" rx="5" fill="#09090F"/>
<rect opacity="0.1" x="526.775" y="126.832" width="21.1972" height="200" rx="5" fill="#09090F"/>
<rect opacity="0.1" x="577.973" y="126.832" width="21.1972" height="200" rx="5" fill="#09090F"/>
</g>
<rect x="168" y="170.832" width="21.1972" height="156" rx="5" fill="#09090F"/>
<rect x="219.197" y="257.832" width="21.1972" height="69" rx="5" fill="#09090F"/>
<rect x="270.395" y="196.832" width="21.1972" height="130" rx="5" fill="#09090F"/>
<rect x="372.592" y="257.832" width="21.1972" height="69" rx="5" fill="#09090F"/>
<rect x="423.789" y="213.832" width="21.1972" height="113" rx="5" fill="#0BA9B9"/>
<rect x="474.986" y="175.832" width="21.1972" height="151" rx="5" fill="#09090F"/>
<g filter="url(#filter0_dd_177_27928)">
<rect x="416" y="163.832" width="38" height="36" rx="8" fill="#0BA9B9"/>
<path d="M438.452 177.027L434.638 185.832H432.457L436.271 177.54H431.377V175.879H438.452V177.027Z" fill="white"/>
<path d="M441.071 197.317C441.962 197.317 442.408 198.394 441.778 199.024L435.707 205.096C435.317 205.486 434.683 205.486 434.293 205.096L428.222 199.024C427.592 198.394 428.038 197.317 428.929 197.317L441.071 197.317Z" fill="#0BA9B9"/>
</g>
</g>
<g clip-path="url(#clip1_177_27928)">
<g opacity="0.7">
<path opacity="0.7" d="M42.9414 421.062H41.1719V414.623L39.1738 415.227V413.797L42.7598 412.52H42.9414V421.062ZM51.543 421.062H45.666V419.855L48.4199 416.926C48.6934 416.629 48.9082 416.369 49.0645 416.146C49.2246 415.92 49.3379 415.715 49.4043 415.531C49.4707 415.348 49.5039 415.176 49.5039 415.016C49.5039 414.645 49.4121 414.355 49.2285 414.148C49.0488 413.938 48.7891 413.832 48.4492 413.832C48.1953 413.832 47.9805 413.895 47.8047 414.02C47.6289 414.141 47.4941 414.307 47.4004 414.518C47.3105 414.725 47.2656 414.963 47.2656 415.232H45.4961C45.4961 414.717 45.6172 414.246 45.8594 413.82C46.1016 413.391 46.4453 413.049 46.8906 412.795C47.3398 412.537 47.8711 412.408 48.4844 412.408C49.3945 412.408 50.0879 412.625 50.5645 413.059C51.041 413.492 51.2793 414.088 51.2793 414.846C51.2793 415.232 51.2012 415.602 51.0449 415.953C50.8887 416.305 50.666 416.658 50.377 417.014C50.0918 417.369 49.7559 417.748 49.3691 418.15L47.9512 419.639H51.543V421.062Z" fill="#171832"/>
<path opacity="0.7" d="M46.9902 460.674C47.4434 460.674 47.8359 460.623 48.168 460.521C48.5039 460.42 48.7793 460.27 48.9941 460.07C49.209 459.867 49.3672 459.615 49.4688 459.314C49.5742 459.01 49.627 458.656 49.627 458.254V456.566C49.627 456.18 49.5762 455.859 49.4746 455.605C49.377 455.348 49.2402 455.156 49.0645 455.031C48.8926 454.902 48.6973 454.838 48.4785 454.838C48.2402 454.838 48.0371 454.914 47.8691 455.066C47.7051 455.219 47.5801 455.416 47.4941 455.658C47.4082 455.896 47.3652 456.15 47.3652 456.42C47.3652 456.701 47.4062 456.959 47.4883 457.193C47.5742 457.428 47.7031 457.615 47.875 457.756C48.0508 457.893 48.2715 457.961 48.5371 457.961C48.7207 457.961 48.8867 457.928 49.0352 457.861C49.1875 457.791 49.3145 457.699 49.416 457.586C49.5215 457.473 49.6035 457.346 49.6621 457.205C49.7207 457.064 49.752 456.924 49.7559 456.783L50.3301 457.152C50.3301 457.41 50.2715 457.668 50.1543 457.926C50.041 458.18 49.8809 458.412 49.6738 458.623C49.4668 458.83 49.2266 458.996 48.9531 459.121C48.6836 459.246 48.3965 459.309 48.0918 459.309C47.5605 459.309 47.1094 459.186 46.7383 458.939C46.3672 458.689 46.084 458.348 45.8887 457.914C45.6934 457.48 45.5957 456.988 45.5957 456.438C45.5957 455.883 45.7148 455.377 45.9531 454.92C46.1914 454.459 46.5273 454.092 46.9609 453.818C47.3945 453.545 47.9023 453.408 48.4844 453.408C48.918 453.408 49.3125 453.49 49.668 453.654C50.0273 453.814 50.3359 454.049 50.5938 454.357C50.8516 454.662 51.0488 455.029 51.1855 455.459C51.3262 455.885 51.3965 456.363 51.3965 456.895V457.504C51.3965 458.074 51.3359 458.6 51.2148 459.08C51.0938 459.561 50.9141 459.992 50.6758 460.375C50.4375 460.754 50.1406 461.076 49.7852 461.342C49.4336 461.607 49.0254 461.811 48.5605 461.951C48.0996 462.088 47.584 462.156 47.0137 462.156H46.8789V460.674H46.9902Z" fill="#171832"/>
<path opacity="0.7" d="M50.3008 494.432V495.891H50.1953C49.7578 495.891 49.3672 495.951 49.0234 496.072C48.6836 496.193 48.3945 496.369 48.1562 496.6C47.9219 496.83 47.7441 497.111 47.623 497.443C47.502 497.771 47.4414 498.143 47.4414 498.557V500.01C47.4414 500.4 47.4922 500.725 47.5938 500.982C47.6953 501.24 47.8379 501.434 48.0215 501.562C48.2051 501.688 48.418 501.75 48.6602 501.75C48.8984 501.75 49.1055 501.686 49.2812 501.557C49.457 501.428 49.5938 501.25 49.6914 501.023C49.7891 500.797 49.8379 500.541 49.8379 500.256C49.8379 499.959 49.7871 499.699 49.6855 499.477C49.5879 499.25 49.4492 499.074 49.2695 498.949C49.0898 498.82 48.875 498.756 48.625 498.756C48.3633 498.756 48.1367 498.814 47.9453 498.932C47.7539 499.049 47.6055 499.197 47.5 499.377C47.3945 499.557 47.3379 499.742 47.3301 499.934L46.8086 499.547C46.8203 499.27 46.8828 499 46.9961 498.738C47.1094 498.477 47.2676 498.24 47.4707 498.029C47.6777 497.818 47.9238 497.65 48.209 497.525C48.4941 497.4 48.8164 497.338 49.1758 497.338C49.7109 497.338 50.1582 497.471 50.5176 497.736C50.877 497.998 51.1465 498.35 51.3262 498.791C51.5098 499.229 51.6016 499.715 51.6016 500.25C51.6016 500.801 51.4805 501.299 51.2383 501.744C51 502.186 50.6641 502.535 50.2305 502.793C49.7969 503.051 49.2871 503.18 48.7012 503.18C48.2441 503.18 47.8301 503.098 47.459 502.934C47.0879 502.77 46.7676 502.539 46.498 502.242C46.2324 501.941 46.0273 501.582 45.8828 501.164C45.7383 500.742 45.666 500.275 45.666 499.764V499.102C45.666 498.406 45.7676 497.773 45.9707 497.203C46.1738 496.629 46.4648 496.137 46.8438 495.727C47.2266 495.312 47.6875 494.994 48.2266 494.771C48.7656 494.545 49.3711 494.432 50.043 494.432H50.3008Z" fill="#171832"/>
<path opacity="0.7" d="M48.3203 539.018C48.5938 539.018 48.8203 538.971 49 538.877C49.1797 538.783 49.3125 538.65 49.3984 538.479C49.4883 538.307 49.5332 538.105 49.5332 537.875C49.5332 537.676 49.4922 537.498 49.4102 537.342C49.332 537.186 49.2109 537.062 49.0469 536.973C48.8828 536.879 48.6758 536.832 48.4258 536.832C48.2344 536.832 48.0547 536.869 47.8867 536.943C47.7188 537.018 47.584 537.123 47.4824 537.26C47.3809 537.393 47.3301 537.551 47.3301 537.734H45.5605C45.5605 537.262 45.6875 536.852 45.9414 536.504C46.1953 536.156 46.5352 535.887 46.9609 535.695C47.3906 535.504 47.8633 535.408 48.3789 535.408C48.9609 535.408 49.4707 535.502 49.9082 535.689C50.3496 535.873 50.6934 536.146 50.9395 536.51C51.1855 536.869 51.3086 537.314 51.3086 537.846C51.3086 538.123 51.2441 538.389 51.1152 538.643C50.9902 538.896 50.8105 539.123 50.5762 539.322C50.3418 539.521 50.0586 539.68 49.7266 539.797C49.3945 539.914 49.0215 539.973 48.6074 539.973H47.4062V539.018H48.3203ZM47.4062 539.463H48.6074C49.0723 539.463 49.4805 539.516 49.832 539.621C50.1836 539.723 50.4785 539.871 50.7168 540.066C50.9551 540.258 51.1348 540.49 51.2559 540.764C51.377 541.033 51.4375 541.334 51.4375 541.666C51.4375 542.197 51.3027 542.65 51.0332 543.025C50.7637 543.4 50.3984 543.688 49.9375 543.887C49.4766 544.082 48.957 544.18 48.3789 544.18C48.0156 544.18 47.6602 544.131 47.3125 544.033C46.9648 543.932 46.6504 543.781 46.3691 543.582C46.0918 543.383 45.8691 543.129 45.7012 542.82C45.5332 542.508 45.4492 542.141 45.4492 541.719H47.2305C47.2305 541.914 47.2812 542.09 47.3828 542.246C47.4883 542.402 47.6309 542.527 47.8105 542.621C47.9902 542.711 48.1953 542.756 48.4258 542.756C48.8125 542.756 49.1152 542.652 49.334 542.445C49.5566 542.234 49.668 541.965 49.668 541.637C49.668 541.34 49.6133 541.102 49.5039 540.922C49.3945 540.738 49.2402 540.605 49.041 540.523C48.8418 540.441 48.6016 540.4 48.3203 540.4H47.4062V539.463Z" fill="#171832"/>
</g>
<g opacity="0.2">
<rect opacity="0.1" x="66" y="396.062" width="21.1972" height="200" rx="5" fill="#09090F"/>
<rect opacity="0.1" x="117.197" y="396.062" width="21.1972" height="200" rx="5" fill="#09090F"/>
<rect opacity="0.1" x="168.395" y="396.062" width="21.1972" height="200" rx="5" fill="#09090F"/>
<rect opacity="0.1" x="219.592" y="396.062" width="21.1972" height="200" rx="5" fill="#09090F"/>
<rect opacity="0.1" x="270.789" y="396.062" width="21.1972" height="200" rx="5" fill="#09090F"/>
<rect opacity="0.1" x="321.986" y="396.062" width="21.1972" height="200" rx="5" fill="#09090F"/>
<rect opacity="0.1" x="373.184" y="396.062" width="21.1972" height="200" rx="5" fill="#09090F"/>
<rect opacity="0.1" x="424.381" y="396.062" width="21.1972" height="200" rx="5" fill="#20E682"/>
<rect opacity="0.1" x="475.578" y="396.062" width="21.1972" height="200" rx="5" fill="#09090F"/>
<rect opacity="0.1" x="526.775" y="396.062" width="21.1972" height="200" rx="5" fill="#09090F"/>
<rect opacity="0.1" x="577.973" y="396.062" width="21.1972" height="200" rx="5" fill="#09090F"/>
</g>
<rect x="168" y="440.062" width="21.1972" height="156" rx="5" fill="#09090F"/>
<rect x="219.197" y="527.062" width="21.1972" height="69" rx="5" fill="#09090F"/>
<rect x="270.395" y="466.062" width="21.1972" height="130" rx="5" fill="#09090F"/>
<rect x="372.592" y="527.062" width="21.1972" height="69" rx="5" fill="#09090F"/>
<rect x="423.789" y="483.062" width="21.1972" height="113" rx="5" fill="#0BA9B9"/>
<rect x="474.986" y="445.062" width="21.1972" height="151" rx="5" fill="#09090F"/>
<g filter="url(#filter1_dd_177_27928)">
<rect x="416" y="433.062" width="38" height="36" rx="8" fill="#0BA9B9"/>
<path d="M438.452 446.258L434.638 455.062H432.457L436.271 446.771H431.377V445.109H438.452V446.258Z" fill="white"/>
<path d="M441.071 466.548C441.962 466.548 442.408 467.625 441.778 468.255L435.707 474.326C435.317 474.716 434.683 474.716 434.293 474.326L428.222 468.255C427.592 467.625 428.038 466.548 428.929 466.548L441.071 466.548Z" fill="#0BA9B9"/>
</g>
</g>
<rect x="501" y="54.8545" width="98" height="29.208" rx="10" fill="white"/>
<path fill-rule="evenodd" clip-rule="evenodd" d="M584.11 67.447C584.368 67.6433 584.368 67.9617 584.11 68.1581L580.584 70.8401C580.326 71.0364 579.907 71.0364 579.649 70.8401L576.123 68.1581C575.865 67.9617 575.865 67.6433 576.123 67.447C576.381 67.2506 576.8 67.2506 577.058 67.447L580.116 69.7733L583.175 67.447C583.433 67.2506 583.851 67.2506 584.11 67.447Z" fill="#09090F"/>
<path d="M518.529 76.4032L518.541 74.9208H520.375C520.824 74.9208 521.201 74.8212 521.506 74.6219C521.814 74.4227 522.047 74.1298 522.203 73.743C522.359 73.3563 522.438 72.8817 522.438 72.3192V71.9442C522.438 71.3778 522.359 70.9032 522.203 70.5204C522.047 70.1376 521.816 69.8485 521.512 69.6532C521.207 69.4579 520.832 69.3602 520.387 69.3602H518.494V67.8719H520.387C521.156 67.8719 521.834 68.0438 522.42 68.3876C523.01 68.7313 523.471 69.2098 523.803 69.8231C524.135 70.4325 524.301 71.1434 524.301 71.9559V72.3192C524.301 73.1317 524.135 73.8446 523.803 74.4579C523.471 75.0712 523.01 75.5497 522.42 75.8934C521.834 76.2333 521.152 76.4032 520.375 76.4032H518.529ZM519.578 76.4032H517.732V67.8719H519.578V76.4032ZM528.818 72.1786C528.818 71.8934 528.748 71.6669 528.607 71.4989C528.467 71.3309 528.242 71.2469 527.934 71.2469C527.758 71.2469 527.605 71.2762 527.477 71.3348C527.348 71.3934 527.25 71.4774 527.184 71.5868C527.117 71.6923 527.084 71.8231 527.084 71.9794H525.314C525.314 71.6044 525.426 71.2645 525.648 70.9598C525.871 70.6512 526.186 70.4052 526.592 70.2216C526.998 70.038 527.477 69.9462 528.027 69.9462C528.52 69.9462 528.959 70.0302 529.346 70.1981C529.732 70.3622 530.037 70.6102 530.26 70.9423C530.482 71.2743 530.594 71.6903 530.594 72.1903V74.8387C530.594 75.2137 530.615 75.5106 530.658 75.7294C530.705 75.9481 530.77 76.1395 530.852 76.3036V76.4032H529.07C528.984 76.2235 528.92 75.9989 528.877 75.7294C528.838 75.4598 528.818 75.1864 528.818 74.9091V72.1786ZM529.059 73.5438H528.156C527.727 73.5438 527.416 73.6376 527.225 73.8251C527.033 74.0087 526.938 74.2313 526.938 74.493C526.938 74.6923 527.008 74.8563 527.148 74.9852C527.289 75.1141 527.479 75.1786 527.717 75.1786C527.963 75.1786 528.174 75.1317 528.35 75.038C528.529 74.9403 528.666 74.8251 528.76 74.6923C528.857 74.5555 528.904 74.4305 528.9 74.3173L529.357 75.079C529.295 75.2352 529.211 75.3973 529.105 75.5653C529.004 75.7333 528.873 75.8895 528.713 76.0341C528.553 76.1786 528.357 76.2958 528.127 76.3856C527.9 76.4755 527.633 76.5204 527.324 76.5204C526.926 76.5204 526.562 76.4403 526.234 76.2802C525.906 76.1161 525.646 75.8915 525.455 75.6063C525.264 75.3173 525.168 74.9872 525.168 74.6161C525.168 73.952 525.414 73.4384 525.906 73.0751C526.398 72.7079 527.131 72.5243 528.104 72.5243H529.047L529.059 73.5438ZM533.723 76.4032H531.947V70.0634H533.723V76.4032ZM531.842 68.4286C531.842 68.163 531.932 67.9462 532.111 67.7782C532.291 67.6063 532.531 67.5204 532.832 67.5204C533.133 67.5204 533.371 67.6063 533.547 67.7782C533.727 67.9462 533.816 68.163 533.816 68.4286C533.816 68.6903 533.727 68.9071 533.547 69.079C533.371 69.2509 533.133 69.3368 532.832 69.3368C532.531 69.3368 532.291 69.2509 532.111 69.079C531.932 68.9071 531.842 68.6903 531.842 68.4286ZM536.945 76.4032H535.17V67.4032H536.945V76.4032ZM541.838 70.0634H543.73L541.199 77.3524C541.145 77.5087 541.07 77.6786 540.977 77.8622C540.883 78.0497 540.758 78.2274 540.602 78.3954C540.449 78.5634 540.254 78.7001 540.016 78.8055C539.781 78.911 539.494 78.9637 539.154 78.9637C539.045 78.9637 538.949 78.9598 538.867 78.952C538.789 78.9442 538.713 78.9305 538.639 78.911C538.564 78.8954 538.48 78.8759 538.387 78.8524V77.5165C538.43 77.5165 538.473 77.5165 538.516 77.5165C538.562 77.5204 538.605 77.5223 538.645 77.5223C538.977 77.5223 539.219 77.4716 539.371 77.37C539.523 77.2684 539.639 77.1063 539.717 76.8837L540.18 75.6708L541.838 70.0634ZM540.9 74.5458L541.141 76.4969L539.945 76.579L537.678 70.0634H539.582L540.9 74.5458Z" fill="#09090F"/>
<defs>
<filter id="filter0_dd_177_27928" x="404" y="163.832" width="62" height="66" filterUnits="userSpaceOnUse" color-interpolation-filters="sRGB">
<feFlood flood-opacity="0" result="BackgroundImageFix"/>
<feColorMatrix in="SourceAlpha" type="matrix" values="0 0 0 0 0 0 0 0 0 0 0 0 0 0 0 0 0 0 127 0" result="hardAlpha"/>
<feMorphology radius="2" operator="erode" in="SourceAlpha" result="effect1_dropShadow_177_27928"/>
<feOffset dy="4"/>
<feGaussianBlur stdDeviation="3"/>
<feColorMatrix type="matrix" values="0 0 0 0 0.0627451 0 0 0 0 0.0941176 0 0 0 0 0.156863 0 0 0 0.03 0"/>
<feBlend mode="normal" in2="BackgroundImageFix" result="effect1_dropShadow_177_27928"/>
<feColorMatrix in="SourceAlpha" type="matrix" values="0 0 0 0 0 0 0 0 0 0 0 0 0 0 0 0 0 0 127 0" result="hardAlpha"/>
<feMorphology radius="4" operator="erode" in="SourceAlpha" result="effect2_dropShadow_177_27928"/>
<feOffset dy="12"/>
<feGaussianBlur stdDeviation="8"/>
<feColorMatrix type="matrix" values="0 0 0 0 0.0627451 0 0 0 0 0.0941176 0 0 0 0 0.156863 0 0 0 0.08 0"/>
<feBlend mode="normal" in2="effect1_dropShadow_177_27928" result="effect2_dropShadow_177_27928"/>
<feBlend mode="normal" in="SourceGraphic" in2="effect2_dropShadow_177_27928" result="shape"/>
</filter>
<filter id="filter1_dd_177_27928" x="404" y="433.062" width="62" height="66" filterUnits="userSpaceOnUse" color-interpolation-filters="sRGB">
<feFlood flood-opacity="0" result="BackgroundImageFix"/>
<feColorMatrix in="SourceAlpha" type="matrix" values="0 0 0 0 0 0 0 0 0 0 0 0 0 0 0 0 0 0 127 0" result="hardAlpha"/>
<feMorphology radius="2" operator="erode" in="SourceAlpha" result="effect1_dropShadow_177_27928"/>
<feOffset dy="4"/>
<feGaussianBlur stdDeviation="3"/>
<feColorMatrix type="matrix" values="0 0 0 0 0.0627451 0 0 0 0 0.0941176 0 0 0 0 0.156863 0 0 0 0.03 0"/>
<feBlend mode="normal" in2="BackgroundImageFix" result="effect1_dropShadow_177_27928"/>
<feColorMatrix in="SourceAlpha" type="matrix" values="0 0 0 0 0 0 0 0 0 0 0 0 0 0 0 0 0 0 127 0" result="hardAlpha"/>
<feMorphology radius="4" operator="erode" in="SourceAlpha" result="effect2_dropShadow_177_27928"/>
<feOffset dy="12"/>
<feGaussianBlur stdDeviation="8"/>
<feColorMatrix type="matrix" values="0 0 0 0 0.0627451 0 0 0 0 0.0941176 0 0 0 0 0.156863 0 0 0 0.08 0"/>
<feBlend mode="normal" in2="effect1_dropShadow_177_27928" result="effect2_dropShadow_177_27928"/>
<feBlend mode="normal" in="SourceGraphic" in2="effect2_dropShadow_177_27928" result="shape"/>
</filter>
<clipPath id="clip0_177_27928">
<rect width="566" height="160.288" fill="white" transform="translate(38 116.832)"/>
</clipPath>
<clipPath id="clip1_177_27928">
<rect width="566" height="160.288" fill="white" transform="translate(38 386.062)"/>
</clipPath>
</defs>
</svg>
