<svg width="20" height="20" viewBox="0 0 20 20" fill="none" xmlns="http://www.w3.org/2000/svg">
<path d="M2.5 3.95834V14.7917C2.5 14.8887 2.52259 14.9844 2.56598 15.0712C2.60938 15.158 2.67238 15.2335 2.75 15.2917C2.82762 15.3499 2.91773 15.3892 3.0132 15.4066C3.10866 15.424 3.20685 15.4188 3.3 15.3917L17.05 11.3813C17.1798 11.3434 17.2939 11.2644 17.375 11.1563C17.4561 11.0481 17.5 10.9165 17.5 10.7813V7.96876C17.5 7.83353 17.4561 7.70194 17.375 7.59376C17.2939 7.48557 17.1798 7.40662 17.05 7.36876L3.3 3.35834C3.20685 3.33118 3.10866 3.32607 3.0132 3.34342C2.91773 3.36078 2.82762 3.40013 2.75 3.45834C2.67238 3.51656 2.60938 3.59205 2.56598 3.67884C2.52259 3.76562 2.5 3.86132 2.5 3.95834V3.95834Z" stroke="#667085" stroke-width="1.5" stroke-linecap="round" stroke-linejoin="round"/>
<path d="M14.375 12.1613V15C14.375 15.1658 14.3092 15.3247 14.1919 15.442C14.0747 15.5592 13.9158 15.625 13.75 15.625H11.25C11.0842 15.625 10.9253 15.5592 10.8081 15.442C10.6908 15.3247 10.625 15.1658 10.625 15V5.49493" stroke="#667085" stroke-width="1.5" stroke-linecap="round" stroke-linejoin="round"/>
</svg>
