<svg width="20" height="20" viewBox="0 0 20 20" fill="none" xmlns="http://www.w3.org/2000/svg">
<g clip-path="url(#clip0_7_35209)">
<path d="M8.34525 12.0861C9.52823 11.4541 10.4661 10.4449 11.0098 9.21889C11.5535 7.99282 11.6719 6.62023 11.3461 5.31918C11.0204 4.01813 10.2692 2.86325 9.21187 2.03804C8.15457 1.21283 6.85183 0.764618 5.51062 0.764618C4.16941 0.764618 2.86666 1.21283 1.80937 2.03804C0.75207 2.86325 0.000870943 4.01813 -0.324881 5.31918C-0.650632 6.62023 -0.53225 7.99282 0.0114563 9.21889C0.555163 10.4449 1.49301 11.4541 2.67598 12.0861C0.564663 12.6605 -1.32102 13.8657 -2.72897 15.5406C-2.82324 15.6518 -2.86948 15.7959 -2.85752 15.9412C-2.84555 16.0864 -2.77636 16.221 -2.66516 16.3153C-2.55397 16.4096 -2.40987 16.4558 -2.26458 16.4439C-2.11929 16.4319 -1.9847 16.3627 -1.89042 16.2515C-0.984473 15.1694 0.147753 14.2991 1.42648 13.7019C2.70521 13.1048 4.09933 12.7953 5.51062 12.7953C6.9219 12.7953 8.31602 13.1048 9.59475 13.7019C10.8735 14.2991 12.0057 15.1694 12.9117 16.2515C12.9634 16.312 13.0277 16.3605 13.1001 16.3935C13.1726 16.4266 13.2513 16.4434 13.3309 16.4429C13.4603 16.441 13.5853 16.3961 13.6864 16.3153C13.7961 16.2201 13.8643 16.0857 13.8762 15.9409C13.8881 15.7962 13.8429 15.6524 13.7502 15.5406C12.3422 13.8657 10.4566 12.6605 8.34525 12.0861ZM0.588742 6.78146C0.588742 5.808 0.877405 4.85641 1.41823 4.04701C1.95905 3.23761 2.72774 2.60676 3.6271 2.23424C4.52645 1.86171 5.51608 1.76424 6.47083 1.95415C7.42558 2.14407 8.30257 2.61283 8.99091 3.30117C9.67924 3.9895 10.148 4.8665 10.3379 5.82125C10.5278 6.776 10.4304 7.76562 10.0578 8.66498C9.68531 9.56433 9.05446 10.333 8.24506 10.8738C7.43567 11.4147 6.48407 11.7033 5.51062 11.7033C4.20525 11.7033 2.95336 11.1848 2.03032 10.2617C1.10729 9.33872 0.588742 8.08682 0.588742 6.78146ZM18.1981 10.8648L17.6604 10.5549C17.7453 10.2323 17.7453 9.89314 17.6604 9.57052L18.1981 9.26062C18.2604 9.22471 18.3149 9.1769 18.3587 9.1199C18.4024 9.06291 18.4345 8.99786 18.4532 8.92845C18.4718 8.85905 18.4766 8.78666 18.4672 8.71542C18.4578 8.64417 18.4345 8.57547 18.3986 8.51323C18.3627 8.45099 18.3149 8.39643 18.2579 8.35266C18.2009 8.3089 18.1359 8.2768 18.0665 8.25818C17.9971 8.23956 17.9247 8.23479 17.8534 8.24414C17.7822 8.2535 17.7135 8.2768 17.6512 8.31271L17.1135 8.6226C16.8765 8.39033 16.585 8.22112 16.2658 8.13041V7.51062C16.2658 7.36558 16.2082 7.22648 16.1056 7.12392C16.0031 7.02137 15.864 6.96375 15.7189 6.96375C15.5739 6.96375 15.4348 7.02137 15.3323 7.12392C15.2297 7.22648 15.1721 7.36558 15.1721 7.51062V8.13041C14.8529 8.22112 14.5614 8.39033 14.3244 8.6226L13.7867 8.31271C13.7244 8.2768 13.6557 8.2535 13.5845 8.24414C13.5132 8.23479 13.4408 8.23956 13.3714 8.25818C13.302 8.2768 13.237 8.3089 13.18 8.35266C13.123 8.39643 13.0752 8.45099 13.0393 8.51323C13.0034 8.57547 12.9801 8.64417 12.9707 8.71542C12.9613 8.78666 12.9661 8.85905 12.9847 8.92845C13.0034 8.99786 13.0355 9.06291 13.0792 9.1199C13.123 9.1769 13.1775 9.22471 13.2398 9.26062L13.7775 9.57052C13.6926 9.89314 13.6926 10.2323 13.7775 10.5549L13.2398 10.8648C13.1354 10.9249 13.0537 11.0178 13.0075 11.1291C12.9613 11.2404 12.9532 11.3638 12.9844 11.4802C13.0155 11.5966 13.0843 11.6995 13.1799 11.7728C13.2756 11.8461 13.3927 11.8858 13.5132 11.8856C13.6088 11.8831 13.7025 11.8581 13.7867 11.8127L14.3244 11.5028C14.5614 11.7351 14.8529 11.9043 15.1721 11.995V12.6148C15.1721 12.7598 15.2297 12.8989 15.3323 13.0015C15.4348 13.104 15.5739 13.1617 15.7189 13.1617C15.864 13.1617 16.0031 13.104 16.1056 13.0015C16.2082 12.8989 16.2658 12.7598 16.2658 12.6148V11.995C16.585 11.9043 16.8765 11.7351 17.1135 11.5028L17.6512 11.8127C17.7354 11.8581 17.8291 11.8831 17.9247 11.8856C18.0452 11.8858 18.1623 11.8461 18.258 11.7728C18.3536 11.6995 18.4224 11.5966 18.4535 11.4802C18.4847 11.3638 18.4766 11.2404 18.4304 11.1291C18.3842 11.0178 18.3025 10.9249 18.1981 10.8648ZM15.7189 10.9742C15.5387 10.9742 15.3625 10.9207 15.2126 10.8206C15.0627 10.7204 14.9459 10.5781 14.8769 10.4115C14.8079 10.245 14.7898 10.0617 14.825 9.88489C14.8602 9.70808 14.947 9.54568 15.0745 9.41821C15.2019 9.29074 15.3643 9.20393 15.5411 9.16876C15.7179 9.13359 15.9012 9.15164 16.0677 9.22063C16.2343 9.28961 16.3766 9.40644 16.4768 9.55633C16.577 9.70621 16.6304 9.88244 16.6304 10.0627C16.6304 10.3044 16.5344 10.5363 16.3634 10.7072C16.1925 10.8781 15.9607 10.9742 15.7189 10.9742Z" fill="#667085"/>
</g>
<path d="M8.5 10.5C9.49456 10.5 10.4484 10.1049 11.1517 9.40165C11.8549 8.69839 12.25 7.74456 12.25 6.75C12.25 5.75544 11.8549 4.80161 11.1517 4.09835C10.4484 3.39509 9.49456 3 8.5 3C7.50544 3 6.55161 3.39509 5.84835 4.09835C5.14509 4.80161 4.75 5.75544 4.75 6.75C4.75 7.74456 5.14509 8.69839 5.84835 9.40165C6.55161 10.1049 7.50544 10.5 8.5 10.5ZM11 6.75C11 7.41304 10.7366 8.04893 10.2678 8.51777C9.79893 8.98661 9.16304 9.25 8.5 9.25C7.83696 9.25 7.20107 8.98661 6.73223 8.51777C6.26339 8.04893 6 7.41304 6 6.75C6 6.08696 6.26339 5.45107 6.73223 4.98223C7.20107 4.51339 7.83696 4.25 8.5 4.25C9.16304 4.25 9.79893 4.51339 10.2678 4.98223C10.7366 5.45107 11 6.08696 11 6.75ZM16 16.75C16 18 14.75 18 14.75 18H2.25C2.25 18 1 18 1 16.75C1 15.5 2.25 11.75 8.5 11.75C14.75 11.75 16 15.5 16 16.75ZM14.75 16.745C14.7487 16.4375 14.5575 15.5125 13.71 14.665C12.895 13.85 11.3612 13 8.5 13C5.6375 13 4.105 13.85 3.29 14.665C2.4425 15.5125 2.2525 16.4375 2.25 16.745H14.75Z" fill="#667085"/>
<defs>
<clipPath id="clip0_7_35209">
<rect width="7" height="8.16667" fill="white" transform="translate(12 5.83334)"/>
</clipPath>
</defs>
</svg>
