<svg width="100" height="100" viewBox="0 0 100 100" fill="none" xmlns="http://www.w3.org/2000/svg">
<circle cx="50" cy="50" r="50" fill="#F8F8F8"/>
<path d="M55.9633 43.2945L54.3827 40.6643C54.0497 40.2554 53.5931 40.0002 53.0812 40.0002H47.6187C47.1069 40.0002 46.6503 40.2554 46.3172 40.6643L44.7367 43.2945C44.4036 43.7041 43.9743 44.0024 43.4625 44.0024H39.9C39.3961 44.0024 38.9128 44.2132 38.5565 44.5885C38.2002 44.9637 38 45.4727 38 46.0034V58.0098C38 58.5405 38.2002 59.0495 38.5565 59.4248C38.9128 59.8001 39.3961 60.0109 39.9 60.0109H60.8C61.3039 60.0109 61.7872 59.8001 62.1435 59.4248C62.4998 59.0495 62.7 58.5405 62.7 58.0098V46.0034C62.7 45.4727 62.4998 44.9637 62.1435 44.5885C61.7872 44.2132 61.3039 44.0024 60.8 44.0024H57.2969C56.7833 44.0024 56.2964 43.7041 55.9633 43.2945Z" stroke="#737876" stroke-width="1.4" stroke-linecap="round" stroke-linejoin="round"/>
<path d="M50.3496 56.0095C52.973 56.0095 55.0996 53.7697 55.0996 51.0068C55.0996 48.2439 52.973 46.0042 50.3496 46.0042C47.7263 46.0042 45.5996 48.2439 45.5996 51.0068C45.5996 53.7697 47.7263 56.0095 50.3496 56.0095Z" stroke="#737876" stroke-width="1.4" stroke-miterlimit="10"/>
<path d="M42.5129 43.876V42.5002H41.0879V43.876" stroke="#737876" stroke-width="1.4" stroke-linecap="round" stroke-linejoin="round"/>
</svg>
