<svg width="20" height="20" viewBox="0 0 20 20" fill="none" xmlns="http://www.w3.org/2000/svg">
<path d="M11.667 15L17.5003 15" stroke="#667085" stroke-width="1.5" stroke-linecap="round" stroke-linejoin="round"/>
<path d="M2.5 15H4.16667" stroke="#667085" stroke-width="1.5" stroke-linecap="round" stroke-linejoin="round"/>
<path d="M6.25033 17.0833C7.40092 17.0833 8.33366 16.1506 8.33366 15C8.33366 13.8494 7.40092 12.9167 6.25033 12.9167C5.09973 12.9167 4.16699 13.8494 4.16699 15C4.16699 16.1506 5.09973 17.0833 6.25033 17.0833Z" stroke="#667085" stroke-width="1.5" stroke-linecap="round" stroke-linejoin="round"/>
<path d="M16.667 10H17.5003" stroke="#667085" stroke-width="1.5" stroke-linecap="round" stroke-linejoin="round"/>
<path d="M2.5 10H8.33333" stroke="#667085" stroke-width="1.5" stroke-linecap="round" stroke-linejoin="round"/>
<path d="M13.7503 12.0833C14.9009 12.0833 15.8337 11.1506 15.8337 9.99999C15.8337 8.8494 14.9009 7.91666 13.7503 7.91666C12.5997 7.91666 11.667 8.8494 11.667 9.99999C11.667 11.1506 12.5997 12.0833 13.7503 12.0833Z" stroke="#667085" stroke-width="1.5" stroke-linecap="round" stroke-linejoin="round"/>
<path d="M10.833 5H17.4997" stroke="#667085" stroke-width="1.5" stroke-linecap="round" stroke-linejoin="round"/>
<path d="M2.5 5H3.33333" stroke="#667085" stroke-width="1.5" stroke-linecap="round" stroke-linejoin="round"/>
<path d="M8.75033 7.08332C9.90092 7.08332 10.8337 6.15058 10.8337 4.99999C10.8337 3.8494 9.90092 2.91666 8.75033 2.91666C7.59973 2.91666 6.66699 3.8494 6.66699 4.99999C6.66699 6.15058 7.59973 7.08332 8.75033 7.08332Z" stroke="#667085" stroke-width="1.5" stroke-linecap="round" stroke-linejoin="round"/>
</svg>
