<svg width="26" height="26" viewBox="0 0 26 26" fill="none" xmlns="http://www.w3.org/2000/svg">
<rect width="26" height="26" rx="8" fill="white"/>
<path fill-rule="evenodd" clip-rule="evenodd" d="M9.78033 7.96967C9.48744 7.67678 9.01256 7.67678 8.71967 7.96967C8.42678 8.26256 8.42678 8.73744 8.71967 9.03033L12.4697 12.7803C12.7626 13.0732 13.2374 13.0732 13.5303 12.7803L17.2803 9.03033C17.5732 8.73744 17.5732 8.26256 17.2803 7.96967C16.9874 7.67678 16.5126 7.67678 16.2197 7.96967L13 11.1893L9.78033 7.96967ZM9.78033 13.2197C9.48744 12.9268 9.01256 12.9268 8.71967 13.2197C8.42678 13.5126 8.42678 13.9874 8.71967 14.2803L12.4697 18.0303C12.7626 18.3232 13.2374 18.3232 13.5303 18.0303L17.2803 14.2803C17.5732 13.9874 17.5732 13.5126 17.2803 13.2197C16.9874 12.9268 16.5126 12.9268 16.2197 13.2197L13 16.4393L9.78033 13.2197Z" fill="#B01C23"/>
</svg>
