<svg width="154" height="105" viewBox="0 0 154 105" fill="none" xmlns="http://www.w3.org/2000/svg">
<ellipse cx="73.0357" cy="50.7846" rx="47.7545" ry="47.6127" fill="#F0F0F0"/>
<path d="M80.457 39.5469L125.248 52.1498L120.577 101.74L66.9922 88.3148L80.457 39.5469Z" fill="#D2D2D2"/>
<path d="M124.975 51.8831L77.9853 39.8281C75.6954 43.1159 69.7965 51.6091 64.5205 59.2805C59.2445 66.9519 50.0481 76.3584 46.1094 80.1028L101.068 96.2674C102.076 95.7195 106.344 91.7194 115.357 80.1028C124.37 68.4861 125.525 56.4494 124.975 51.8831Z" fill="#F3F3F3" stroke="#CCCCCC" stroke-width="0.818293"/>
<ellipse cx="82.1046" cy="52.6996" rx="2.19834" ry="2.19182" fill="#C4C4C4"/>
<ellipse cx="75.5108" cy="64.2074" rx="2.19834" ry="2.19182" fill="#C4C4C4"/>
<ellipse cx="68.9171" cy="74.6137" rx="2.19834" ry="2.19182" fill="#C4C4C4"/>
<path d="M55.8665 36.4717C51.073 46.3428 39.1604 50.4717 29.2582 45.6916C19.3559 40.9115 15.2162 29.0338 20.0098 19.1626C24.8033 9.29142 36.7159 5.16256 46.6181 9.94264C56.5203 14.7227 60.66 26.6005 55.8665 36.4717Z" fill="#F0F0F0" stroke="#D2D2D2" stroke-width="0.818293"/>
<rect width="10.9917" height="1.64386" transform="matrix(1 0 0 -1 31.6172 33.5703)" fill="#C4C4C4"/>
<ellipse cx="26.3977" cy="24.5294" rx="3.02272" ry="3.01375" fill="#C4C4C4"/>
<ellipse cx="47.8274" cy="24.5294" rx="3.02272" ry="3.01375" fill="#C4C4C4"/>
<rect width="26.3745" height="1.09614" rx="0.548071" transform="matrix(0.963835 0.266502 -0.267977 0.963425 81.125 66.0938)" fill="#C4C4C4"/>
<rect width="23.8727" height="1.09614" rx="0.548071" transform="matrix(0.963835 0.266502 -0.267977 0.963425 75.375 77.2031)" fill="#C4C4C4"/>
<rect width="26.3752" height="1.09611" rx="0.548057" transform="matrix(0.968328 0.249683 -0.251079 0.967967 88.3672 54.375)" fill="#C4C4C4"/>
</svg>
