<svg width="21" height="20" viewBox="0 0 21 20" fill="none" xmlns="http://www.w3.org/2000/svg">
<path d="M6.68304 2.1425C6.76005 1.88446 6.91834 1.65819 7.13434 1.49737C7.35034 1.33656 7.6125 1.24979 7.88179 1.25H13.3893C13.5912 1.25008 13.7901 1.29907 13.969 1.39278C14.1478 1.4865 14.3013 1.62215 14.4163 1.78813C14.5313 1.95411 14.6044 2.14548 14.6293 2.34586C14.6542 2.54624 14.6302 2.74967 14.5593 2.93875L13.318 6.25H15.8555C16.0318 6.2502 16.2045 6.30011 16.3537 6.394C16.5029 6.48788 16.6227 6.62194 16.6991 6.78078C16.7756 6.93962 16.8058 7.11681 16.7861 7.292C16.7665 7.4672 16.6978 7.6333 16.588 7.77125L8.32929 18.1463C7.26179 19.4875 5.12679 18.3813 5.60679 16.7363L7.20679 11.25H5.22804C5.08193 11.2502 4.93779 11.2163 4.80712 11.1509C4.67645 11.0856 4.56287 10.9906 4.47544 10.8735C4.38801 10.7564 4.32915 10.6206 4.30356 10.4767C4.27796 10.3329 4.28635 10.185 4.32804 10.045L6.68304 2.1425ZM13.3905 2.5H7.88179L5.64679 10H8.04054C8.13756 10 8.23326 10.0226 8.32004 10.066C8.40683 10.1094 8.48232 10.1724 8.54054 10.25C8.59875 10.3276 8.6381 10.4177 8.65545 10.5132C8.67281 10.6087 8.6677 10.7069 8.64054 10.8L6.80679 17.0863C6.78135 17.157 6.78403 17.2349 6.81429 17.3038C6.84653 17.3678 6.89875 17.4195 6.96304 17.4513C7.03429 17.4888 7.10804 17.4975 7.16804 17.4875C7.24229 17.4731 7.30811 17.4305 7.35179 17.3688L15.2068 7.5H12.4155C12.3145 7.5 12.215 7.47551 12.1255 7.42861C12.036 7.38172 11.9592 7.31383 11.9017 7.23076C11.8442 7.14769 11.8076 7.05191 11.7953 6.95163C11.7829 6.85136 11.795 6.74957 11.8305 6.655L13.3893 2.5H13.3905Z" fill="#101211"/>
</svg>
