<svg width="20" height="20" viewBox="0 0 20 20" fill="none" xmlns="http://www.w3.org/2000/svg">
<path d="M6.25 9.99939H13.75" stroke="#5F6DEF" stroke-width="2" stroke-linecap="round" stroke-linejoin="round"/>
<path d="M8.125 13.7498H5C4.00544 13.7498 3.05161 13.3547 2.34835 12.6514C1.64509 11.9481 1.25 10.9943 1.25 9.99976C1.25 9.00519 1.64509 8.05137 2.34835 7.3481C3.05161 6.64484 4.00544 6.24976 5 6.24976H8.125" stroke="#5F6DEF" stroke-width="2" stroke-linecap="round" stroke-linejoin="round"/>
<path d="M11.875 13.7498H15C15.9946 13.7498 16.9484 13.3547 17.6517 12.6514C18.3549 11.9481 18.75 10.9943 18.75 9.99976C18.75 9.00519 18.3549 8.05137 17.6517 7.3481C16.9484 6.64484 15.9946 6.24976 15 6.24976H11.875" stroke="#5F6DEF" stroke-width="2" stroke-linecap="round" stroke-linejoin="round"/>
</svg>
