<svg width="20" height="20" viewBox="0 0 20 20" fill="none" xmlns="http://www.w3.org/2000/svg">
<path d="M10 17.5C14.1421 17.5 17.5 14.1421 17.5 10C17.5 5.85786 14.1421 2.5 10 2.5C5.85786 2.5 2.5 5.85786 2.5 10C2.5 14.1421 5.85786 17.5 10 17.5Z" stroke="#667085" stroke-width="1.5" stroke-linecap="round" stroke-linejoin="round"/>
<path d="M14.3467 16.1102C13.2786 14.9174 11.7268 14.1667 9.99954 14.1667C8.27233 14.1667 6.72044 14.9174 5.65234 16.1102" stroke="#667085" stroke-width="1.5" stroke-linecap="round" stroke-linejoin="round"/>
<path d="M10 11.6667C11.3807 11.6667 12.5 10.5474 12.5 9.16669C12.5 7.78598 11.3807 6.66669 10 6.66669C8.61929 6.66669 7.5 7.78598 7.5 9.16669C7.5 10.5474 8.61929 11.6667 10 11.6667Z" stroke="#667085" stroke-width="1.5" stroke-linecap="round" stroke-linejoin="round"/>
</svg>
