<svg width="17" height="6" viewBox="0 0 17 6" fill="none" xmlns="http://www.w3.org/2000/svg">
<path d="M3.55645 4.25832C4.46803 3.73202 4.78036 2.56639 4.25406 1.65481C3.72776 0.743238 2.56213 0.430909 1.65055 0.957208C0.738978 1.48351 0.426649 2.64913 0.952948 3.56071C1.47925 4.47229 2.64487 4.78462 3.55645 4.25832Z" fill="#101828"/>
<path d="M9.2752 4.25441C10.1868 3.72811 10.4991 2.56248 9.97281 1.65091C9.44651 0.739332 8.28088 0.427003 7.3693 0.953302C6.45773 1.4796 6.1454 2.64523 6.6717 3.5568C7.198 4.46838 8.36362 4.78071 9.2752 4.25441Z" fill="#101828"/>
<path d="M15.0018 4.25441C15.9133 3.72811 16.2257 2.56248 15.6994 1.65091C15.1731 0.739332 14.0074 0.427003 13.0959 0.953302C12.1843 1.4796 11.872 2.64523 12.3983 3.5568C12.9246 4.46838 14.0902 4.78071 15.0018 4.25441Z" fill="#101828"/>
</svg>
