<svg width="24" height="17" viewBox="0 0 24 17" fill="none" xmlns="http://www.w3.org/2000/svg">
<g clip-path="url(#clip0_2_878)">
<path d="M10.3 5.61582C9.91 5.8774 9.91 6.29326 10.3 6.55484L12.2 7.82923H3C2.45 7.82923 2 8.13106 2 8.49996C2 8.86887 2.45 9.1707 3 9.1707H12.2L10.3 10.4451C9.91 10.7067 9.91 11.1225 10.3 11.3841C10.69 11.6457 11.31 11.6457 11.7 11.3841L15.29 8.97618C15.68 8.7146 15.68 8.29204 15.29 8.03045L11.7 5.61582C11.31 5.35423 10.69 5.35423 10.3 5.61582ZM20 13.1951H13C12.45 13.1951 12 13.4969 12 13.8658C12 14.2347 12.45 14.5365 13 14.5365H20C21.1 14.5365 22 13.9329 22 13.1951V3.80484C22 3.06704 21.1 2.46338 20 2.46338H13C12.45 2.46338 12 2.76521 12 3.13411C12 3.50301 12.45 3.80484 13 3.80484H20V13.1951Z" fill="white"/>
</g>
<defs>
<clipPath id="clip0_2_878">
<rect width="24" height="16.0976" fill="white" transform="translate(0 0.451172)"/>
</clipPath>
</defs>
</svg>
