<svg width="24" height="24" viewBox="0 0 24 24" fill="none" xmlns="http://www.w3.org/2000/svg">
<path d="M10 2C5.59357 2 2 5.59357 2 10C2 14.4064 5.59357 18 10 18C12.0239 18 13.8717 17.237 15.2832 15.9902L16 16.707V18L20 22L22 20L18 16H16.707L15.9902 15.2832C17.237 13.8717 18 12.0239 18 10C18 5.59357 14.4064 2 10 2ZM10 4C13.3256 4 16 6.67445 16 10C16 13.3256 13.3256 16 10 16C6.67445 16 4 13.3256 4 10C4 6.67445 6.67445 4 10 4ZM7 8C6.73478 8 6.48043 8.10536 6.29289 8.29289C6.10536 8.48043 6 8.73478 6 9C6 9.26522 6.10536 9.51957 6.29289 9.70711C6.48043 9.89464 6.73478 10 7 10C7.26522 10 7.51957 9.89464 7.70711 9.70711C7.89464 9.51957 8 9.26522 8 9C8 8.73478 7.89464 8.48043 7.70711 8.29289C7.51957 8.10536 7.26522 8 7 8ZM13 8C12.7348 8 12.4804 8.10536 12.2929 8.29289C12.1054 8.48043 12 8.73478 12 9C12 9.26522 12.1054 9.51957 12.2929 9.70711C12.4804 9.89464 12.7348 10 13 10C13.2652 10 13.5196 9.89464 13.7071 9.70711C13.8946 9.51957 14 9.26522 14 9C14 8.73478 13.8946 8.48043 13.7071 8.29289C13.5196 8.10536 13.2652 8 13 8ZM10 10.9961C8.77741 10.9961 7.5541 11.3645 6.51953 12.1035L7.68164 13.7324C9.04251 12.7604 10.9555 12.7604 12.3164 13.7324L13.4785 12.1035C12.444 11.3645 11.2226 10.9961 10 10.9961Z" fill="#09090F"/>
</svg>
