<svg width="56" height="56" viewBox="0 0 56 56" fill="none" xmlns="http://www.w3.org/2000/svg">
<rect x="4" y="4" width="48" height="48" rx="24" fill="#FFF3AD"/>
<rect x="4" y="4" width="48" height="48" rx="24" stroke="#FFF9D6" stroke-width="8"/>
<path d="M23.8831 24.679C23.8811 24.7274 23.889 24.7758 23.9063 24.8211C23.9236 24.8664 23.95 24.9076 23.9839 24.9423C24.0177 24.977 24.0583 25.0044 24.1032 25.0229C24.148 25.0413 24.1962 25.0504 24.2446 25.0495H25.4821C25.6891 25.0495 25.8541 24.88 25.8811 24.6745C26.0161 23.6905 26.6911 22.9735 27.8941 22.9735C28.9231 22.9735 29.8651 23.488 29.8651 24.7255C29.8651 25.678 29.3041 26.116 28.4176 26.782C27.4081 27.5155 26.6086 28.372 26.6656 29.7625L26.6701 30.088C26.6717 30.1864 26.7119 30.2803 26.7821 30.3493C26.8522 30.4183 26.9467 30.457 27.0451 30.457H28.2616C28.3611 30.457 28.4565 30.4175 28.5268 30.3472C28.5971 30.2768 28.6366 30.1815 28.6366 30.082V29.9245C28.6366 28.8475 29.0461 28.534 30.1516 27.6955C31.0651 27.001 32.0176 26.23 32.0176 24.6115C32.0176 22.345 30.1036 21.25 28.0081 21.25C26.1076 21.25 24.0256 22.135 23.8831 24.679ZM26.2186 33.3235C26.2186 34.123 26.8561 34.714 27.7336 34.714C28.6471 34.714 29.2756 34.123 29.2756 33.3235C29.2756 32.4955 28.6456 31.9135 27.7321 31.9135C26.8561 31.9135 26.2186 32.4955 26.2186 33.3235Z" fill="#CBAF02"/>
</svg>
